<svg id="Layer_1" data-name="Layer 1" xmlns="http://www.w3.org/2000/svg" viewBox="0 0 192 22"><title>03_Artboard 1</title><rect x="178.22" y="7.62" width="6.77" height="6.77" transform="translate(45.44 131.66) rotate(-45.01)"/><polygon points="169.8 12.5 171.48 11 169.8 9.5 115 9.52 5.61 11 115 12.48 169.8 12.5"/><path d="M171,14.39l2.91-2.91,2.81,2.81a.34.34,0,0,0,.48,0,.34.34,0,0,0,0-.48L174.37,11l2.81-2.81a.34.34,0,0,0,0-.48.33.33,0,0,0-.48,0l-2.81,2.81L171,7.61h-56.2a5.49,5.49,0,0,1-5.49-5.49.34.34,0,0,0-.68,0,6.18,6.18,0,0,0,6.17,6.17h55.91L173.41,11l-2.72,2.71H114.78a6.18,6.18,0,0,0-6.17,6.17.34.34,0,0,0,.68,0,5.49,5.49,0,0,1,5.49-5.49Z"/></svg>