<svg id="Layer_1" data-name="Layer 1" xmlns="http://www.w3.org/2000/svg" viewBox="0 0 1362.59 836.51"><title>living_room</title><path d="M485.2,400.13l0,0,0-.05C485,399.94,485,399.94,485.2,400.13Z" transform="translate(-23.97 -99.18)" style="fill:#e5804e"/><path d="M1189.54,900.82c191.14-305.59,113.75-688.62-32-706.5-65.26-8-121.29,2.14-183.2-38.85C914.66,116,856.12,92.38,787.26,100.93,649.6,118,567.09,251.11,454.07,329.17c-66.74,46.09-128.3,49.93-202.92,49.93-59.76,0-122.54,1.61-168.87,55C-22.89,555.17,32.37,771.67,105.75,900.82Z" transform="translate(-23.97 -99.18)" style="fill:#fffdcf"/><rect x="400.62" y="165.24" width="118.17" height="90.65" style="fill:#d5dba9"/><rect x="431.37" y="193.56" width="56.65" height="33.99" style="fill:#fffdcf"/><rect x="580.22" y="31.24" width="90.65" height="118.17" style="fill:#d5dba9"/><rect x="608.55" y="61.99" width="33.99" height="56.65" style="fill:#fffdcf"/><path d="M1386.57,907.09c0,15.79-285,28.6-636.57,28.6s-636.57-12.81-636.57-28.6,285-28.61,636.57-28.61S1386.57,891.29,1386.57,907.09Z" transform="translate(-23.97 -99.18)" style="fill:#a7aeaf"/><path d="M1345.92,908.28c0,7-262.16,12.74-585.55,12.74s-585.56-5.7-585.56-12.74S437,895.54,760.37,895.54,1345.92,901.25,1345.92,908.28Z" transform="translate(-23.97 -99.18)" style="fill:#818687"/><polygon points="158.62 752.21 159.42 767.02 431.6 767.02 432.51 752.21 158.62 752.21" style="fill:#c44923"/><polygon points="263.58 810.16 279.64 766.83 262.38 766.83 254.92 810.16 263.58 810.16" style="fill:#7a2e17"/><polygon points="174.6 810.16 191.31 765.09 174.04 765.09 166.28 810.16 174.6 810.16" style="fill:#c44923"/><polygon points="389.55 810.16 382.12 767.02 364.85 767.02 380.85 810.16 389.55 810.16" style="fill:#c44923"/><polygon points="509.29 810.16 501.81 767.02 484.55 767.02 500.54 810.16 509.29 810.16" style="fill:#7a2e17"/><polygon points="375.15 771.83 387.13 810.16 389.55 810.16 382.12 767.02 364.85 767.02 366.25 770.8 375.15 771.83" style="fill:#7a2e17"/><polygon points="171.26 810.16 174.6 810.16 191.31 765.09 174.04 765.09 173.5 768.26 182.14 770.2 171.26 810.16" style="fill:#7a2e17"/><polygon points="371.71 752.21 432.44 753.34 432.51 752.21 371.71 752.21" style="fill:#7a2e17"/><polygon points="378.64 752.21 375.78 767.02 511.79 767.02 514.52 752.21 378.64 752.21" style="fill:#7a2e17"/><rect x="161.57" y="442.35" width="350" height="311.46" style="fill:#c44923"/><rect x="356.12" y="442.35" width="155.45" height="311.46" style="fill:#7a2e17"/><rect x="176.15" y="455.19" width="161.73" height="66.64" style="fill:#7a2e17"/><rect x="176.15" y="530.38" width="161.73" height="66.64" style="fill:#7a2e17"/><rect x="176.15" y="605.56" width="161.73" height="66.64" style="fill:#7a2e17"/><rect x="176.15" y="680.75" width="161.73" height="66.64" style="fill:#7a2e17"/><path d="M275.63,593.15a5.27,5.27,0,1,1-5.27-5.27A5.27,5.27,0,0,1,275.63,593.15Z" transform="translate(-23.97 -99.18)" style="fill:#c44923"/><path d="M275.63,673.09a5.27,5.27,0,1,1-5.27-5.27A5.27,5.27,0,0,1,275.63,673.09Z" transform="translate(-23.97 -99.18)" style="fill:#c44923"/><path d="M275.63,753a5.27,5.27,0,1,1-5.27-5.27A5.27,5.27,0,0,1,275.63,753Z" transform="translate(-23.97 -99.18)" style="fill:#c44923"/><path d="M275.63,833a5.27,5.27,0,1,1-5.27-5.27A5.27,5.27,0,0,1,275.63,833Z" transform="translate(-23.97 -99.18)" style="fill:#c44923"/><path d="M471.6,540.55a4,4,0,0,0-3.82-4.06L432.94,531l-36.44,5.46a4,4,0,0,0-3.83,4.06Z" transform="translate(-23.97 -99.18)" style="fill:#4c403d"/><polygon points="411.93 434.76 404.4 434.76 407.1 268.52 409.28 268.52 411.93 434.76" style="fill:#4c403d"/><polygon points="455.27 322.09 361.06 322.09 369.42 258.95 377.69 196.48 441.41 196.48 452.08 293.22 455.27 322.09" style="fill:#edd25f"/><path d="M476.06,392.4c-24.18,6.94-50.87-1.81-70.68-19.86a70.9,70.9,0,0,1-12-14.41l8.27-62.47h63.73Z" transform="translate(-23.97 -99.18)" style="fill:#ffed9f"/><path d="M411.49,540.46H328.11c-3.69,0-6.68-4.16-6.68-9.29a11.31,11.31,0,0,1,2-6.57,5.91,5.91,0,0,1,4.73-2.72h83.37a6,6,0,0,0-4.38,2.72,11.31,11.31,0,0,0-2,6.57C405.15,536.14,408,540.21,411.49,540.46Z" transform="translate(-23.97 -99.18)" style="fill:#fffee9"/><path d="M407.89,524.8c-.11.13-.22.28-.33.42s-.21.3-.31.46H342.3v-.88Z" transform="translate(-23.97 -99.18)" style="fill:#b7b59e"/><path d="M406,528.76c0,.29-.11.58-.15.88H342.61v-.88Z" transform="translate(-23.97 -99.18)" style="fill:#b7b59e"/><path d="M406,533.59h-63.1v-.88h62.95C405.92,533,406,533.31,406,533.59Z" transform="translate(-23.97 -99.18)" style="fill:#b7b59e"/><path d="M407.88,537.55H343.25v-.88h64A8.2,8.2,0,0,0,407.88,537.55Z" transform="translate(-23.97 -99.18)" style="fill:#b7b59e"/><path d="M407.88,537.55a8.2,8.2,0,0,1-.63-.88,9.83,9.83,0,0,1-1.22-3.08c-.06-.28-.11-.58-.15-.88a12.82,12.82,0,0,1-.1-1.53,11.17,11.17,0,0,1,.1-1.54c0-.3.1-.59.15-.88a10,10,0,0,1,1.22-3.08c.1-.16.2-.3.31-.46s.22-.29.33-.42a5.29,5.29,0,0,1,3.63-2l0-1.75H328.11a6.45,6.45,0,0,0-5.17,3,12.39,12.39,0,0,0-2.14,7.19c0,5.61,3.28,10.17,7.31,10.17h83.43l0-1.75A5.31,5.31,0,0,1,407.88,537.55Zm-79.77,2c-3.33,0-6.05-3.77-6.05-8.41a10.28,10.28,0,0,1,1.78-5.95,5.31,5.31,0,0,1,4.27-2.46h79.61a7.94,7.94,0,0,0-1.06,1.22,8.67,8.67,0,0,0-.53.81c-.16.29-.32.58-.46.88a12.41,12.41,0,0,0-.95,3.08c-.05.29-.09.59-.12.88a13.13,13.13,0,0,0-.08,1.54,12.85,12.85,0,0,0,.08,1.53c0,.3.07.59.12.88a12.31,12.31,0,0,0,.95,3.08c.14.3.29.59.46.88a8.74,8.74,0,0,0,1.58,2Z" transform="translate(-23.97 -99.18)" style="fill:#26514a"/><path d="M347.78,541.27H271.86c-3.36,0-6.08-4.52-6.08-10.1a14.08,14.08,0,0,1,1.78-7.15c1.1-1.82,2.62-3,4.31-3h75.91a5.48,5.48,0,0,0-4,3,14,14,0,0,0-1.78,7.14C342,536.58,344.57,541,347.78,541.27Z" transform="translate(-23.97 -99.18)" style="fill:#26514a"/><path d="M545.94,570.82c49.58-12.28,98.42-16.87,148.94-16.4.39-2.56.79-5.13,1.24-7.69-83.76-9.78-159.27-1.08-241.52,21.92v.41C488,564.27,512.09,564.34,545.94,570.82Z" transform="translate(-23.97 -99.18)" style="fill:#c64b1a"/><path d="M545.94,570.82a1184.88,1184.88,0,0,0,12.75,145.91q58.77-5.87,117.61-9.11c4.71-51,10.61-101.86,18.58-153.2C644.36,554,595.52,558.54,545.94,570.82Z" transform="translate(-23.97 -99.18)" style="fill:#b5421a"/><path d="M454.6,568.76c3.2,73.12,4.83,144.7,26.33,214,3.37,10.92,7.19,22.16,14.49,30.51,6.28,7.25,14.71,11.79,23.57,14.18a49.45,49.45,0,0,0,7.25,1.6c11.34,1.78,22.85.68,34.24-.31-23.18-35.42-29.08-83.62-15-124.38,4.43-.43,8.81-.86,13.25-1.23a983.79,983.79,0,0,1-12.75-132.8C512.09,564.46,488,564.4,454.6,568.76Z" transform="translate(-23.97 -99.18)" style="fill:#ff953e"/><path d="M1020.88,363.44c-8.93-.27-17.85-.53-26.83-.66,10.15.13,16.43,5.46,20.5,15.14,4.17,10.08,4.61,22.13,4.66,33.66a655.75,655.75,0,0,1-13.59,135.47c19.19-2.11,37.56,5.09,56.89,5.55a807.42,807.42,0,0,0,12.27-121c.35-16.59-.24-34.57-7.89-47.62C1056.58,366.27,1037.6,364,1020.88,363.44Z" transform="translate(-23.97 -99.18)" style="fill:#c64b1a"/><path d="M667.2,430.61C661.7,449.18,658,469.4,654,488.43c-9,42.61-16.09,85.95-21.28,129.74q-4.42,37.74-7,75.74l222.63.19c23.35,0,46.64.07,70,.07,4.22-44,7.55-88.51,9.47-130.92a405.72,405.72,0,0,1,77.83-16.2,655.75,655.75,0,0,0,13.59-135.47c-.05-11.53-.49-23.58-4.66-33.66-4.07-9.68-10.35-15-20.5-15.14h-1.18c-81.47-1.32-163,3.16-244.25,12.31-17.22,2-34.77,4.22-50.52,13.77-11.87,7.17-24,19.95-29.24,36.22C668.28,426.92,667.74,428.7,667.2,430.61Z" transform="translate(-23.97 -99.18)" style="fill:#e0752d"/><path d="M815.57,679c-3.92,50.87,4,102.94,22.79,149.43,12.18-.06,24.37-.19,36.55-.32,7.52-46,14.88-97.23,20.78-149Q855.6,679.07,815.57,679Z" transform="translate(-23.97 -99.18)" style="fill:#c64b1a"/><path d="M482.64,809.84a392,392,0,0,1-5.88-40.3q-.5-5.46-.81-10.92c-.05-1.09-.15-3.12-.17-3.75,0-1.84-.1-3.69-.13-5.54-.09-7.52.07-15.06.66-22.56.29-3.78.66-7.55,1.15-11.3.22-1.66.46-3.32.72-5,.11-.61.22-1.22.34-1.82A140.64,140.64,0,0,1,483.74,689c.53-1.52,1.08-3,1.67-4.52.26-.6.52-1.19.79-1.78.61-1.31,1.24-2.62,1.9-3.91h72.65l254.82.19c-3.92,50.87,4,102.94,22.79,149.43-118,1.1-234.86,1.55-351.26,1.42Q484.66,819.92,482.64,809.84Z" transform="translate(-23.97 -99.18)" style="fill:#ff953e"/><path d="M476.07,748.59c0,1.84.08,3.69.14,5.54,0,.62.12,2.66.18,3.75.22,3.64.52,7.28.87,10.92.77,8,1.86,16,3.21,23.87-.29-10-.07-20.06-.44-27.75-1.24-26,.5-54.71,13.19-77.79,0,0,164-4.31,207-9L568,678.07H489.51c-.71,1.29-1.4,2.6-2.06,3.92-.28.58-.56,1.18-.85,1.77q-.94,2.24-1.8,4.52a133.29,133.29,0,0,0-5.64,19.65c-.12.6-.25,1.22-.36,1.82-.29,1.65-.54,3.31-.78,5-.53,3.75-.93,7.52-1.25,11.3C476.14,733.52,476,741.06,476.07,748.59Z" transform="translate(-23.97 -99.18)" style="fill:#c64b1a"/><polygon points="606.03 753.44 597.2 811.2 606.03 811.2 625.04 753.44 606.03 753.44" style="fill:#7a2e17"/><polygon points="485.75 753.44 476.92 811.2 485.75 811.2 504.76 753.44 485.75 753.44" style="fill:#c44923"/><polygon points="485.15 757.37 494.67 759.78 482.24 811.2 485.75 811.2 504.76 753.44 485.75 753.44 485.15 757.37" style="fill:#7a2e17"/><polygon points="473.35 729.32 475.23 755.83 920.83 755.83 922.98 729.32 473.35 729.32" style="fill:#c44923"/><polygon points="473.35 729.32 473.58 732.52 922.21 738.87 922.98 729.32 473.35 729.32" style="fill:#7a2e17"/><polygon points="887.65 755.83 906.66 813.59 915.49 813.59 906.66 755.83 887.65 755.83" style="fill:#c44923"/><polygon points="1019.44 755.83 1038.44 813.59 1047.33 813.59 1038.44 755.83 1019.44 755.83" style="fill:#7a2e17"/><polygon points="922.9 729.32 918.66 755.83 1058.6 755.83 1062.65 729.32 922.9 729.32" style="fill:#7a2e17"/><polygon points="913.35 813.59 898.99 761.8 889.18 760.52 887.65 755.83 906.66 755.83 915.49 813.59 913.35 813.59" style="fill:#7a2e17"/><path d="M959,535.15a538.08,538.08,0,0,0-89.09,15.71c30.88-5.94,62.88-4.47,94.09-2,51.93-4,108.4-4.79,167.91-3.57a547.36,547.36,0,0,0-106.66-12.52A585.46,585.46,0,0,0,959,535.15Z" transform="translate(-23.97 -99.18)" style="fill:#b5421a"/><path d="M940.47,747.54c-7.64,31.37-19.26,72.59-47.44,81.67l15.16.19c50.91.44,164,10.18,178.44-.9,16.58-12.76,42.24-67.54,47-86.45,15.77-63.2,13.86-133.55-1.69-196.74-59.51-1.22-116-.39-167.91,3.57C968.2,615.85,955.18,686.71,940.47,747.54Z" transform="translate(-23.97 -99.18)" style="fill:#b5421a"/><path d="M859.07,677.89c-5.9,52.21-13.26,103.77-20.78,150.16,18.58.52,36.77.9,54.74,1.16,28.18-9.08,39.8-50.3,47.44-81.67C955.18,686.71,968.2,615.85,964,548.88c-31.21-2.49-63.21-4-94.09,2C867.71,592,863.89,635.15,859.07,677.89Z" transform="translate(-23.97 -99.18)" style="fill:#ff953e"/></svg>