<?xml version="1.0" encoding="utf-8"?>
<!-- Generator: Adobe Illustrator 23.1.0, SVG Export Plug-In . SVG Version: 6.00 Build 0)  -->
<svg version="1.1" xmlns="http://www.w3.org/2000/svg" xmlns:xlink="http://www.w3.org/1999/xlink" x="0px" y="0px"
	 viewBox="0 0 500 500" style="enable-background:new 0 0 500 500;" xml:space="preserve">
<g id="Floor">
	<ellipse style="fill:#EBF2F8;" cx="250" cy="356.97" rx="208.82" ry="120.56"/>
</g>
<g id="Shadows">
	<ellipse style="fill:#E0E0E0;" cx="282.77" cy="415.33" rx="45.16" ry="26.07"/>
	<path style="fill:#E0E0E0;" d="M259.3,327.05L138.51,396.8c-3.4,1.96-9.33,1.72-13.26-0.55l-42.88-24.76
		c-3.92-2.27-4.35-5.69-0.95-7.65l120.79-69.75c3.4-1.96,9.33-1.72,13.26,0.55l42.88,24.76C262.27,321.66,262.7,325.09,259.3,327.05
		z"/>
</g>
<g id="Plants">
	<g>
		<path style="fill:#BA68C8;" d="M389.36,351.4l9.51,5.53c0,0-4.8-15.33-2.14-30.74c1.01-5.82,3.12-8.71,3.87-10.26
			c0.75-1.55,6.48-11.17,1.43-15.6c-5.05-4.43-16.9,4.38-16.37,28.13C385.95,340.64,389.36,351.4,389.36,351.4z"/>
		<path style="opacity:0.5;" d="M389.36,351.4l9.51,5.53c0,0-4.8-15.33-2.14-30.74c1.01-5.82,3.12-8.71,3.87-10.26
			c0.75-1.55,6.48-11.17,1.43-15.6c-5.05-4.43-16.9,4.38-16.37,28.13C385.95,340.64,389.36,351.4,389.36,351.4z"/>
		<path style="fill:#FFFFFF;" d="M393.79,354.41c-0.18,0-0.34-0.11-0.41-0.28c-0.04-0.1-3.63-10.09-3.44-26.11
			c0.19-16.12,8.66-24.72,8.75-24.8c0.17-0.17,0.44-0.17,0.61,0c0.17,0.17,0.17,0.44,0,0.61c-0.08,0.08-8.31,8.45-8.49,24.2
			c-0.19,15.85,3.36,25.71,3.39,25.81c0.08,0.22-0.03,0.47-0.26,0.55C393.89,354.4,393.84,354.41,393.79,354.41z"/>
	</g>
	<g>
		<path style="fill:#BA68C8;" d="M396.74,355.72l15.72,9.24c0,0,7.2-1.06,6.65-7.84c-0.54-6.77-3.47-8.37,0.17-11.35
			c3.64-2.98,4.58-3.17,4.41-6.09c-0.17-2.92-2.14-4.19-3.06-5.35c-0.92-1.16-3.5-3.58-1.69-7.1c1.81-3.52,4.27-6.92,0.62-8.53
			c-2.18-0.96-5.83,0.24-8.26,2.82c-2.43,2.57-4.43,4.43-6.72,5.02c-2.3,0.6-7.09,0.65-6.93,4.6c0.16,3.96,1.19,5.33,0.23,7.08
			C396.08,341.55,388.35,343.34,396.74,355.72z"/>
		<path style="opacity:0.2;" d="M396.74,355.72l15.72,9.24c0,0,7.2-1.06,6.65-7.84c-0.54-6.77-3.47-8.37,0.17-11.35
			c3.64-2.98,4.58-3.17,4.41-6.09c-0.17-2.92-2.14-4.19-3.06-5.35c-0.92-1.16-3.5-3.58-1.69-7.1c1.81-3.52,4.27-6.92,0.62-8.53
			c-2.18-0.96-5.83,0.24-8.26,2.82c-2.43,2.57-4.43,4.43-6.72,5.02c-2.3,0.6-7.09,0.65-6.93,4.6c0.16,3.96,1.19,5.33,0.23,7.08
			C396.08,341.55,388.35,343.34,396.74,355.72z"/>
		<path style="fill:#FFFFFF;" d="M403.14,359.92c-0.22,0-0.41-0.17-0.43-0.4c-0.02-0.23-1.73-23.67,14.55-39.06
			c0.17-0.16,0.45-0.16,0.61,0.02c0.16,0.17,0.16,0.45-0.02,0.61c-15.98,15.1-14.31,38.13-14.29,38.37c0.02,0.24-0.16,0.45-0.4,0.47
			C403.17,359.92,403.16,359.92,403.14,359.92z"/>
		<path style="fill:#FFFFFF;" d="M405.96,339.83c-0.22,0-0.41-0.17-0.43-0.4c-0.46-6.15-4.73-9.31-4.78-9.34
			c-0.19-0.14-0.24-0.41-0.1-0.6c0.14-0.19,0.41-0.24,0.6-0.1c0.19,0.14,4.65,3.42,5.13,9.98c0.02,0.24-0.16,0.44-0.4,0.46
			C405.99,339.83,405.97,339.83,405.96,339.83z"/>
		<path style="fill:#FFFFFF;" d="M404.8,343.83c-0.1,0-0.21-0.04-0.29-0.11c-0.18-0.16-0.19-0.43-0.03-0.61
			c0.17-0.19,4.27-4.62,13.75-3.32c0.24,0.03,0.4,0.25,0.37,0.49c-0.03,0.24-0.25,0.4-0.49,0.37c-8.99-1.23-12.95,3-12.99,3.04
			C405.04,343.79,404.92,343.83,404.8,343.83z"/>
	</g>
	<g>
		<path style="fill:#BA68C8;" d="M101.12,337.94l-4.7,9.95c0,0-4.74-15.34-15.68-26.53c-4.13-4.22-7.51-5.4-9.01-6.26
			c-1.5-0.85-11.68-5.52-10.03-12.03c1.64-6.52,16.4-5.98,29.44,13.88C97.83,327.14,101.12,337.94,101.12,337.94z"/>
		<path style="opacity:0.5;" d="M101.12,337.94l-4.7,9.95c0,0-4.74-15.34-15.68-26.53c-4.13-4.22-7.51-5.4-9.01-6.26
			c-1.5-0.85-11.68-5.52-10.03-12.03c1.64-6.52,16.4-5.98,29.44,13.88C97.83,327.14,101.12,337.94,101.12,337.94z"/>
		<path style="fill:#FFFFFF;" d="M98.94,343c-0.19,0-0.37-0.13-0.42-0.32c-0.03-0.1-2.7-10.23-11.85-23.17
			c-9.09-12.86-20.61-15.09-20.72-15.11c-0.23-0.04-0.39-0.27-0.35-0.5c0.04-0.23,0.26-0.39,0.5-0.35
			c0.12,0.02,11.97,2.29,21.27,15.46c9.25,13.09,11.95,23.36,11.98,23.46c0.06,0.23-0.08,0.47-0.31,0.53
			C99.01,343,98.97,343,98.94,343z"/>
	</g>
	<g>
		<path style="fill:#BA68C8;" d="M97.5,345.69l-7.7,16.53c0,0-6.53,3.21-9.92-2.68c-3.4-5.89-1.89-8.86-6.58-9.25
			c-4.69-0.39-5.57-0.01-7.08-2.52c-1.51-2.5-0.62-4.66-0.51-6.14c0.1-1.48,0.85-4.93-2.64-6.8c-3.49-1.87-7.44-3.28-5.35-6.67
			c1.24-2.03,4.94-3.11,8.4-2.37c3.46,0.74,6.16,1.13,8.39,0.32c2.23-0.81,6.2-3.49,8.32-0.14c2.11,3.35,2.04,5.06,3.83,5.96
			C90.01,333.64,97.38,330.72,97.5,345.69z"/>
		<path style="opacity:0.2;" d="M97.5,345.69l-7.7,16.53c0,0-6.53,3.21-9.92-2.68c-3.4-5.89-1.89-8.86-6.58-9.25
			c-4.69-0.39-5.57-0.01-7.08-2.52c-1.51-2.5-0.62-4.66-0.51-6.14c0.1-1.48,0.85-4.93-2.64-6.8c-3.49-1.87-7.44-3.28-5.35-6.67
			c1.24-2.03,4.94-3.11,8.4-2.37c3.46,0.74,6.16,1.13,8.39,0.32c2.23-0.81,6.2-3.49,8.32-0.14c2.11,3.35,2.04,5.06,3.83,5.96
			C90.01,333.64,97.38,330.72,97.5,345.69z"/>
		<path style="fill:#FFFFFF;" d="M94.36,352.85c-0.15,0-0.29-0.08-0.37-0.22c-0.12-0.2-11.81-20.12-33.53-23.49
			c-0.24-0.04-0.4-0.26-0.36-0.49c0.04-0.24,0.26-0.4,0.49-0.36c22.14,3.43,34.03,23.7,34.15,23.91c0.12,0.21,0.05,0.47-0.16,0.59
			C94.51,352.83,94.44,352.85,94.36,352.85z"/>
		<path style="fill:#FFFFFF;" d="M80.65,337.91c-0.15,0-0.29-0.08-0.37-0.21c-3.32-5.68-1.51-10.91-1.44-11.13
			c0.08-0.22,0.32-0.34,0.55-0.26c0.22,0.08,0.34,0.33,0.26,0.55c-0.02,0.05-1.75,5.08,1.37,10.4c0.12,0.21,0.05,0.47-0.15,0.59
			C80.8,337.89,80.72,337.91,80.65,337.91z"/>
		<path style="fill:#FFFFFF;" d="M71.06,345.51c-0.12,0-0.23-0.05-0.32-0.14c-0.16-0.18-0.15-0.45,0.03-0.61
			c7.06-6.45,12.96-5.12,13.2-5.07c0.23,0.06,0.37,0.29,0.32,0.52c-0.05,0.23-0.28,0.38-0.52,0.32c-0.06-0.01-5.72-1.25-12.42,4.86
			C71.27,345.47,71.16,345.51,71.06,345.51z"/>
	</g>
</g>
<g id="Device">
	<g>
		<polygon style="fill:#37474F;" points="219.57,66.39 219.57,66.39 219.57,66.39 		"/>
		<path style="fill:#37474F;" d="M97.61,136.5c0-5.93,3.16-11.41,8.3-14.37l105.52-60.92c3.12-1.8,6.9-0.11,7.89,3.06
			c-0.57-2.47-2.11-4.64-4.34-5.97l-0.38-0.22c-2.63-1.56-5.63-2.39-8.68-2.39v0c-0.93-0.01-1.88,0.22-2.78,0.73L97.62,117.35
			c-5.13,2.96-8.3,8.44-8.3,14.37v228.19c0,4.18,4.53,6.8,8.15,4.71l0.14-0.08V136.5z"/>
	</g>
	<path style="fill:#455A64;" d="M211.28,308.48L105.76,369.4c-3.62,2.09-8.15-0.52-8.15-4.71V136.5c0-5.93,3.16-11.41,8.3-14.37
		l105.52-60.92c3.62-2.09,8.15,0.52,8.15,4.71v228.19C219.57,300.04,216.41,305.52,211.28,308.48z"/>
	<path style="fill:#263238;" d="M97.61,364.7V136.5c0-2.53,0.58-4.98,1.64-7.18l-8.16-5.05c-1.14,2.27-1.77,4.82-1.77,7.45v227.72
		v0.48v1.91c0,1.84,0.97,3.55,2.55,4.49l4.21,2.51c1.46,0.87,3.12,1.33,4.82,1.33h2.08v0C100.17,370.1,97.61,367.84,97.61,364.7z"/>
	<g>
		<path style="fill:#37474F;" d="M207.65,83.15v191.8c0,5.24-2.79,10.07-7.33,12.69l-93.18,53.8c-0.75,0.43-1.54,0.63-2.31,0.64
			c1.08,2.5,4.21,3.75,6.81,2.24l93.18-53.8c4.53-2.62,7.33-7.46,7.33-12.69V87.93C212.14,85.25,210.03,83.3,207.65,83.15z"/>
		<g>
			<path style="fill:#BA68C8;" d="M104.83,342.07c0.77-0.01,1.56-0.21,2.31-0.64l93.18-53.8c4.53-2.62,7.33-7.46,7.33-12.69V83.15
				c0.44,0.03-1.4-0.12-2.7,0.63l-93.18,53.8c-4.53,2.62-7.33,7.46-7.33,12.69v189.9c0,0.7,0.15,1.35,0.4,1.94
				C104.84,342.09,104.83,342.08,104.83,342.07z"/>
		</g>
		<g style="opacity:0.5;">
			<path style="fill:#FFFFFF;" d="M104.83,342.07c0.77-0.01,1.56-0.21,2.31-0.64l93.18-53.8c4.53-2.62,7.33-7.46,7.33-12.69V83.15
				c0.44,0.03-1.4-0.12-2.7,0.63l-93.18,53.8c-4.53,2.62-7.33,7.46-7.33,12.69v189.9c0,0.7,0.15,1.35,0.4,1.94
				C104.84,342.09,104.83,342.08,104.83,342.07z"/>
		</g>
	</g>
	<g>
		<path style="fill:#263238;" d="M143.82,109.46c0,1.07-0.75,2.37-1.68,2.91c-0.93,0.53-1.68,0.1-1.68-0.97
			c0-1.07,0.75-2.37,1.68-2.91C143.07,107.96,143.82,108.39,143.82,109.46z"/>
		<path style="fill:#263238;" d="M150.07,105.86c0,1.07-0.75,2.37-1.68,2.91c-0.93,0.54-1.68,0.1-1.68-0.97
			c0-1.07,0.75-2.37,1.68-2.91C149.31,104.36,150.07,104.79,150.07,105.86z"/>
		<path style="fill:#263238;" d="M175.26,93.25l-20.3,11.72c-0.8,0.46-1.45-0.03-1.45-1.1l0,0c0-1.07,0.65-2.31,1.45-2.78
			l20.3-11.72c0.8-0.46,1.45,0.03,1.45,1.1l0,0C176.71,91.54,176.06,92.79,175.26,93.25z"/>
	</g>
	<path style="fill:#263238;" d="M171.83,315.68L171.83,315.68c1.21,0,2,1.29,2,3.28c0,3.13-1.96,6.9-4.27,8.23l-9.71,5.6
		c-0.52,0.3-1,0.45-1.45,0.45c-1.21,0-2-1.29-2-3.27c0-3.13,1.96-6.9,4.27-8.23l9.71-5.6C170.9,315.83,171.39,315.68,171.83,315.68
		 M171.83,314.85c-0.57,0-1.2,0.18-1.86,0.56l-9.71,5.6c-2.59,1.49-4.69,5.5-4.69,8.95c0,2.57,1.16,4.1,2.83,4.1
		c0.57,0,1.2-0.18,1.86-0.56l9.71-5.6c2.59-1.49,4.69-5.5,4.69-8.95C174.65,316.39,173.49,314.85,171.83,314.85L171.83,314.85z"/>
</g>
<g id="Screen">
	<g>
		<g>
			<g>
				<path style="fill:#E6E6E6;" d="M118.19,163.71v214.99c0,3.89,1.43,6.51,3.62,7.37l0.06,0.02l0.01,0.01l9.29,5.09l-0.05-8.27
					l-1.03-222.93l-9.81-5.02C118.97,157.75,118.19,160.84,118.19,163.71z"/>
				<path style="fill:#E6E6E6;" d="M131.67,392.03l-10.06-5.51c-2.49-1.03-3.93-3.94-3.93-7.83V163.71c0-2.83,0.76-6.01,2.13-8.95
					l0.22-0.47l10.54,5.39l0,0.3l1.03,222.93L131.67,392.03z M122.12,385.66l8.55,4.68l-0.05-7.42l-1.03-222.62l-9.07-4.64
					c-1.18,2.68-1.82,5.52-1.82,8.05v214.99c0,3.51,1.23,6.09,3.3,6.9L122.12,385.66L122.12,385.66z"/>
			</g>
			<g>
				<path style="fill:#E0E0E0;" d="M120.27,154.97l9.81,5.02L235.09,98.9l7.01-4.08l-9.69-5.46l-0.28-0.16v-0.01
					c-1.54-0.93-3.57-0.87-5.79,0.42L126.94,147C124.27,148.54,121.87,151.51,120.27,154.97z"/>
				<path style="fill:#E0E0E0;" d="M130.08,160.49c-0.08,0-0.16-0.02-0.23-0.05l-9.81-5.02c-0.24-0.12-0.34-0.41-0.23-0.66
					c1.71-3.67,4.21-6.66,6.88-8.19l99.4-57.39c2.3-1.33,4.54-1.48,6.3-0.41c0.03,0.02,0.05,0.03,0.07,0.05l0.2,0.12l9.68,5.45
					c0.16,0.09,0.25,0.25,0.25,0.43c0,0.18-0.09,0.35-0.25,0.44l-112.02,65.17C130.26,160.46,130.17,160.49,130.08,160.49z
					 M120.93,154.74l9.13,4.67l111.03-64.59l-9.21-5.2c-0.03-0.02-0.05-0.03-0.08-0.05c-1.43-0.82-3.28-0.65-5.21,0.47l-99.4,57.39
					C124.81,148.81,122.54,151.46,120.93,154.74z"/>
			</g>
			<path style="fill:#FAFAFA;" d="M127.81,169.11v214.02c0,3.37,1.07,5.8,2.79,6.93l0.56,0.31c1.49,0.71,3.36,0.55,5.4-0.62
				L184.61,362l51.35-30.91c4.83-2.79,8.76-9.03,8.76-15.46V101.63c0-3.26-1-5.62-2.62-6.81c-0.28-0.2-0.57-0.38-0.89-0.5
				c-1.46-0.62-3.28-0.44-5.25,0.69l-99.4,58.36c-2.58,1.48-4.89,3.34-6.48,6.62C128.67,162.86,127.81,166.1,127.81,169.11z"/>
		</g>
		<g>
			<path style="fill:#FAFAFA;" d="M235.96,331.1c-20.45,12.2-73.66,43.96-100,59.82c-3.45,2.08-7.84-0.41-7.84-4.44V166.42
				c0-5.09,2.7-9.81,7.1-12.38l101.22-59.32c3.45-2.02,7.79,0.47,7.79,4.46v217.36C244.23,322.51,241.09,328.04,235.96,331.1z"/>
			<path style="fill:#EBEBEB;" d="M235.71,330.67c-16.06,9.58-32.11,19.16-48.16,28.76c-9.5,5.68-19,11.36-28.5,17.05
				c-4.34,2.6-8.68,5.2-13.01,7.8c-1.9,1.14-3.79,2.28-5.69,3.42c-1.75,1.05-3.61,2.55-5.55,3.22c-3.21,1.11-6.1-1.45-6.18-4.62
				c-0.01-0.51,0-1.02,0-1.54c0-2.48,0-4.95,0-7.43c0-9.64,0-19.27,0-28.91c0-13.8,0-27.6,0-41.4c0-15.5,0-31.01,0-46.51
				c0-14.6,0-29.2,0-43.8c0-11.24,0-22.48,0-33.72c0-5.37-0.01-10.75,0-16.12c0.01-5.29,2.57-9.87,7.14-12.57
				c2.32-1.37,4.65-2.73,6.98-4.09c10.9-6.39,21.8-12.78,32.7-19.16c12.92-7.57,25.83-15.14,38.75-22.71
				c7.35-4.31,14.68-8.65,22.05-12.92c2.28-1.32,5.15-1.19,6.74,1.19c0.64,0.97,0.76,2.05,0.76,3.16c0.01,1.92,0,3.84,0,5.75
				c0,8.86,0,17.71,0,26.57c0,13.41,0,26.82,0,40.23c0,15.39,0,30.79,0,46.18c0,14.85,0,29.7,0,44.55c0,11.64,0,23.28,0,34.92
				c0,5.91,0,11.81,0,17.72C243.73,321.84,241.04,327.39,235.71,330.67c-0.55,0.34-0.05,1.2,0.5,0.86c5.56-3.42,8.52-9.25,8.52-15.7
				c0-2.05,0-4.09,0-6.14c0-9.17,0-18.34,0-27.51c0-13.73,0-27.46,0-41.19c0-15.72,0-31.44,0-47.17c0-14.84,0-29.67,0-44.51
				c0-11.4,0-22.8,0-34.21c0-5.23,0.06-10.45,0-15.68c-0.05-4.75-4.84-7.28-8.88-4.96c-2.44,1.41-4.85,2.84-7.28,4.27
				c-11.2,6.56-22.4,13.13-33.6,19.69c-13.03,7.64-26.06,15.28-39.1,22.91c-6.91,4.05-13.85,8.07-20.74,12.16
				c-4.79,2.84-7.49,7.77-7.51,13.31c-0.01,1.8,0,3.6,0,5.4c0,8.75,0,17.49,0,26.24c0,13.45,0,26.9,0,40.35c0,15.66,0,31.31,0,46.97
				c0,15.05,0,30.1,0,45.15c0,11.97,0,23.93,0,35.9c0,6.21,0,12.42,0,18.62c0,0.34-0.01,0.69,0,1.03c0.12,3.77,3.74,6.65,7.45,5.41
				c1.89-0.63,3.67-2.05,5.37-3.07c1.93-1.16,3.87-2.32,5.8-3.49c4.32-2.6,8.65-5.19,12.97-7.78
				c18.91-11.33,37.84-22.64,56.76-33.94c6.74-4.03,13.49-8.05,20.23-12.07C236.76,331.2,236.26,330.33,235.71,330.67z"/>
		</g>
		<path style="fill:#EBEBEB;" d="M135.22,154.03l101.22-59.32c3.45-2.02,7.79,0.47,7.79,4.46v9.55l-0.03,0l-116.08,67.02v-9.32
			C128.12,161.32,130.82,156.61,135.22,154.03z"/>
	</g>
	<g>
		
			<ellipse transform="matrix(0.5 -0.866 0.866 0.5 -76.0709 258.8929)" style="fill:#BA68C8;" cx="186.17" cy="195.33" rx="37.17" ry="21.46"/>
		
			<ellipse transform="matrix(0.5 -0.866 0.866 0.5 -76.0709 258.8929)" style="opacity:0.5;fill:#FFFFFF;" cx="186.17" cy="195.33" rx="37.17" ry="21.46"/>
		<g>
			<path style="fill:#37474F;" d="M181.46,195.44c-0.65,0-1.18-0.53-1.18-1.18v-7.77c0-3.43,2.33-7.47,5.3-9.19
				c1.64-0.95,3.24-1.06,4.51-0.33c1.27,0.73,1.97,2.18,1.97,4.07v7.77c0,0.65-0.53,1.18-1.18,1.18c-0.65,0-1.18-0.53-1.18-1.18
				v-7.77c0-1-0.29-1.74-0.79-2.03c-0.5-0.29-1.29-0.17-2.15,0.33c-2.24,1.29-4.13,4.56-4.13,7.15v7.77
				C182.64,194.91,182.11,195.44,181.46,195.44z"/>
			<g>
				<path style="fill:#BA68C8;" d="M195.7,183.81c-0.46-0.22-1.04-0.18-1.67,0.19l-15.72,9.08c-0.63,0.36-1.21,0.99-1.67,1.74
					c-0.62,1.01-1.02,2.25-1.02,3.39v13.61c0,0.99,0.3,1.71,0.78,2.07c0.09,0.07,0.18,0.12,0.27,0.16l0,0l0,0
					c0.45,0.2,1.01,0.15,1.63-0.2l15.72-9.08c1.48-0.86,2.68-3.15,2.68-5.13v-13.61C196.72,184.88,196.32,184.1,195.7,183.81z"/>
			</g>
			<g>
				<path style="fill:#455A64;" d="M187.96,197.99l1.52,4.36l-5.33,3.08l1.33-5.38l0.19-0.76c-0.9,0.03-1.52-0.67-1.52-1.89
					c0-0.47,0.09-0.96,0.25-1.45c0.43-1.29,1.35-2.55,2.41-3.16c1.47-0.85,2.66-0.16,2.66,1.54c0,1.23-0.63,2.64-1.52,3.66
					L187.96,197.99z"/>
				<path style="fill:#37474F;" d="M185.48,200.04l0.19-0.76c-0.9,0.03-1.52-0.67-1.52-1.89c0-0.47,0.09-0.96,0.25-1.45l3.56,2.06
					l1.52,4.36L185.48,200.04z"/>
			</g>
		</g>
	</g>
	<g>
		<path style="fill:#BA68C8;" d="M224.95,245.66l-77.55,44.77c-3.21,1.85-5.81-0.11-5.81-4.39v-11.75c0-4.28,2.6-9.25,5.81-11.1
			l77.55-44.77c3.21-1.85,5.81,0.11,5.81,4.39v11.75C230.76,238.84,228.16,243.8,224.95,245.66z"/>
		<g>
			<g>
				<rect x="159.85" y="262.13" style="fill:#FAFAFA;" width="1.5" height="12.43"/>
				
					<rect x="154.39" y="267.6" transform="matrix(0.866 -0.5001 0.5001 0.866 -112.6703 116.2763)" style="fill:#FAFAFA;" width="12.43" height="1.5"/>
				
					<rect x="159.85" y="263.95" transform="matrix(0.5 -0.866 0.866 0.5 -152.0957 273.2669)" style="fill:#FAFAFA;" width="1.5" height="8.79"/>
				
					<rect x="152.99" y="267.6" transform="matrix(0.5001 -0.866 0.866 0.5001 -152.0961 273.2378)" style="fill:#FAFAFA;" width="15.23" height="1.5"/>
			</g>
			<g>
				<rect x="185.42" y="248.21" style="fill:#FAFAFA;" width="1.5" height="12.43"/>
				
					<rect x="179.96" y="253.67" transform="matrix(0.866 -0.5001 0.5001 0.866 -102.2794 127.1959)" style="fill:#FAFAFA;" width="12.43" height="1.5"/>
				
					<rect x="185.42" y="250.03" transform="matrix(0.5 -0.866 0.866 0.5 -127.2502 288.4463)" style="fill:#FAFAFA;" width="1.5" height="8.79"/>
				
					<rect x="178.56" y="253.67" transform="matrix(0.5001 -0.866 0.866 0.5001 -127.2535 288.4179)" style="fill:#FAFAFA;" width="15.23" height="1.5"/>
			</g>
			<g>
				<rect x="210.99" y="234.28" style="fill:#FAFAFA;" width="1.5" height="12.43"/>
				
					<rect x="205.53" y="239.75" transform="matrix(0.866 -0.5 0.5 0.866 -91.8852 138.1059)" style="fill:#FAFAFA;" width="12.43" height="1.5"/>
				
					<rect x="210.99" y="236.1" transform="matrix(0.5 -0.866 0.866 0.5 -102.4047 303.6268)" style="fill:#FAFAFA;" width="1.5" height="8.79"/>
				
					<rect x="204.13" y="239.75" transform="matrix(0.5 -0.866 0.866 0.5 -102.4081 303.6086)" style="fill:#FAFAFA;" width="15.23" height="1.5"/>
			</g>
		</g>
	</g>
	<g>
		<path style="fill:#BA68C8;" d="M227.25,261.84c1.04,0,1.5,1.55,1.5,3.09v11.75c0,3.57-2.2,7.86-4.81,9.37l-77.55,44.77
			c-0.49,0.28-0.94,0.43-1.31,0.43c-1.04,0-1.5-1.55-1.5-3.09v-11.75c0-3.57,2.2-7.86,4.81-9.37l77.55-44.77
			C226.43,261.99,226.89,261.84,227.25,261.84 M227.25,259.84c-0.71,0-1.49,0.22-2.31,0.7l-77.55,44.77
			c-3.21,1.85-5.81,6.82-5.81,11.1v11.75c0,3.18,1.44,5.09,3.5,5.09c0.71,0,1.49-0.22,2.31-0.7l77.55-44.77
			c3.21-1.85,5.81-6.82,5.81-11.1v-11.75C230.76,261.75,229.31,259.84,227.25,259.84L227.25,259.84z"/>
		
			<text transform="matrix(0.866 -0.5 0 1 167.1501 310.9482)" style="fill:#BA68C8; font-family:'Montserrat-ExtraBold'; font-size:11.6086px; letter-spacing:2;">enter</text>
	</g>
</g>
<g id="Icons">
	<path style="fill:#455A64;" d="M341.39,128.31c0,1.45,1.03,3.2,2.31,3.93c1.28,0.72,2.31,0.14,2.31-1.31c0-1.45-1.03-3.2-2.31-3.93
		C342.43,126.28,341.39,126.86,341.39,128.31z"/>
	<path style="fill:#455A64;" d="M310.42,137.63c-1.77,0-3.73-0.58-5.75-1.72l-7.33-4.15c-0.24-0.14-0.33-0.44-0.19-0.68
		c0.14-0.24,0.44-0.32,0.68-0.19l7.33,4.15c3.16,1.79,6.1,2.08,8.27,0.81c2.13-1.24,3.3-3.85,3.3-7.36c0-3.88,1.35-6.79,3.79-8.22
		c2.49-1.45,5.78-1.17,9.27,0.81l11.85,6.71c0.24,0.14,0.33,0.44,0.19,0.68c-0.14,0.24-0.44,0.32-0.68,0.19l-11.85-6.71
		c-3.16-1.79-6.1-2.08-8.27-0.81c-2.13,1.24-3.3,3.85-3.3,7.36c0,3.88-1.35,6.79-3.79,8.22
		C312.89,137.32,311.7,137.63,310.42,137.63z"/>
	<path style="fill:#455A64;" d="M294.31,129.51c0,1.17,0.84,2.59,1.87,3.18c1.03,0.58,1.87,0.11,1.87-1.06
		c0-1.17-0.84-2.59-1.87-3.18C295.15,127.86,294.31,128.34,294.31,129.51z"/>
	<path style="fill:#455A64;" d="M341.39,215.72c0,1.45,1.03,3.2,2.31,3.93c1.28,0.72,2.31,0.14,2.31-1.31s-1.03-3.2-2.31-3.93
		C342.43,213.68,341.39,214.27,341.39,215.72z"/>
	<path style="fill:#455A64;" d="M341.48,216.81c-0.08,0-0.17-0.02-0.25-0.06l-11.85-6.71c-6.93-3.93-12.57-13.51-12.57-21.37
		c0-7.53-5.41-16.73-12.06-20.5l-7.42-4.2c-0.24-0.14-0.33-0.44-0.19-0.68c0.14-0.24,0.44-0.32,0.68-0.19l7.42,4.2
		c6.93,3.93,12.57,13.51,12.57,21.37c0,7.53,5.41,16.73,12.06,20.5l11.85,6.71c0.24,0.14,0.33,0.44,0.19,0.68
		C341.82,216.72,341.65,216.81,341.48,216.81z"/>
	<path style="fill:#455A64;" d="M294.31,161.54c0,1.17,0.84,2.59,1.87,3.18c1.03,0.58,1.87,0.11,1.87-1.06s-0.84-2.59-1.87-3.18
		C295.15,159.9,294.31,160.37,294.31,161.54z"/>
	<g>
		<path style="fill:#BA68C8;" d="M412.59,118.88l-48.98-27.74c-1.4-0.81-2.66-0.75-3.56-0.01l-4.23,2.93l2.89,3.57v51.63
			c0,3.61,2.2,7.81,4.9,9.37l47.76,27.04l0.22,3.85l4.46-3.06c0.89-0.67,1.44-1.99,1.44-3.79v-54.41
			C417.5,124.64,415.3,120.45,412.59,118.88z"/>
		<path style="opacity:0.3;" d="M412.59,118.88l-48.98-27.74c-1.4-0.81-2.66-0.75-3.56-0.01l-4.23,2.93l2.89,3.57v51.63
			c0,3.61,2.2,7.81,4.9,9.37l47.76,27.04l0.22,3.85l4.46-3.06c0.89-0.67,1.44-1.99,1.44-3.79v-54.41
			C417.5,124.64,415.3,120.45,412.59,118.88z"/>
		<path style="fill:#BA68C8;" d="M408.43,189.23l-48.98-27.74c-2.71-1.56-4.9-5.76-4.9-9.37V97.72c0-3.61,2.2-5.27,4.9-3.71
			l48.98,27.74c2.71,1.56,4.9,5.76,4.9,9.37v54.41C413.33,189.14,411.14,190.8,408.43,189.23z"/>
	</g>
	<g>
		<path style="fill:#FFFFFF;" d="M398.14,142.15c-0.22,0-0.42-0.15-0.48-0.37c-1.02-3.81-2.68-7.59-4.8-10.92
			c-0.15-0.23-0.08-0.54,0.15-0.69c0.23-0.15,0.54-0.08,0.69,0.15c2.17,3.42,3.87,7.29,4.92,11.2c0.07,0.27-0.09,0.54-0.35,0.61
			C398.22,142.15,398.18,142.15,398.14,142.15z"/>
		<path style="fill:#FFFFFF;" d="M399.26,152.32c-0.01,0-0.02,0-0.03,0c-0.28-0.02-0.48-0.26-0.47-0.53
			c0.04-0.54,0.05-1.09,0.05-1.66c0-1.64-0.15-3.36-0.45-5.1c-0.05-0.27,0.14-0.53,0.41-0.58c0.28-0.04,0.53,0.14,0.58,0.41
			c0.31,1.8,0.46,3.57,0.46,5.27c0,0.59-0.02,1.17-0.06,1.73C399.74,152.11,399.52,152.32,399.26,152.32z"/>
		<path style="fill:#FFFFFF;" d="M368.67,135.72c-0.26,0-0.47-0.2-0.5-0.46c-0.08-0.87-0.11-1.73-0.11-2.57
			c0-4.85,1.31-8.86,3.68-11.28c0.19-0.2,0.51-0.2,0.71-0.01c0.2,0.19,0.2,0.51,0.01,0.71c-2.19,2.24-3.4,6-3.4,10.58
			c0,0.81,0.04,1.65,0.11,2.48c0.02,0.27-0.18,0.52-0.45,0.54C368.7,135.72,368.69,135.72,368.67,135.72z"/>
		<path style="fill:#FFFFFF;" d="M390.79,127.63c-0.14,0-0.29-0.06-0.39-0.18c-2.1-2.57-4.36-4.55-6.71-5.88
			c-3.32-1.88-6.44-2.24-9.01-1.05c-0.25,0.12-0.55,0.01-0.66-0.24c-0.12-0.25-0.01-0.55,0.24-0.66c2.88-1.34,6.31-0.96,9.92,1.09
			c2.46,1.4,4.81,3.45,6.99,6.12c0.17,0.21,0.14,0.53-0.07,0.7C391.01,127.6,390.9,127.63,390.79,127.63z"/>
		<path style="fill:#FFFFFF;" d="M372.12,136.11c-0.27,0-0.49-0.21-0.5-0.48c-0.01-0.31-0.02-0.62-0.02-0.93
			c0-3.55,0.87-6.45,2.52-8.38c0.18-0.21,0.5-0.24,0.71-0.06c0.21,0.18,0.24,0.49,0.06,0.7c-1.49,1.75-2.28,4.42-2.28,7.73
			c0,0.29,0.01,0.59,0.02,0.88c0.01,0.28-0.2,0.51-0.48,0.52C372.14,136.11,372.13,136.11,372.12,136.11z"/>
		<path style="fill:#FFFFFF;" d="M376.04,125.81c-0.17,0-0.33-0.08-0.43-0.24c-0.14-0.24-0.07-0.54,0.16-0.69
			c1.25-0.77,2.69-1.08,4.25-0.93c0.28,0.03,0.48,0.27,0.45,0.55c-0.03,0.27-0.28,0.47-0.55,0.45c-1.35-0.13-2.56,0.13-3.62,0.78
			C376.22,125.78,376.13,125.81,376.04,125.81z"/>
		<path style="fill:#FFFFFF;" d="M398.14,158.75c-0.2,0-0.38-0.12-0.46-0.31l-0.59-1.45c-1.19-2.95-1.82-6-1.81-8.84
			c0-8.48-5.2-18.29-11.58-21.91c-0.24-0.14-0.33-0.44-0.19-0.68c0.14-0.24,0.44-0.32,0.68-0.19c6.67,3.78,12.09,13.98,12.09,22.75
			c0,2.74,0.6,5.67,1.74,8.5l0.59,1.45c0.1,0.26-0.02,0.55-0.28,0.65C398.26,158.74,398.2,158.75,398.14,158.75z"/>
		<path style="fill:#FFFFFF;" d="M375.18,153c-0.2,0-0.4-0.13-0.47-0.33c-2.52-6.88-3.1-14.53-3.11-14.61
			c-0.02-0.28,0.19-0.51,0.46-0.53c0.24-0.02,0.51,0.19,0.54,0.46c0,0.07,0.58,7.59,3.05,14.34c0.09,0.26-0.04,0.55-0.3,0.64
			C375.3,152.99,375.24,153,375.18,153z"/>
		<path style="fill:#FFFFFF;" d="M395.2,162.12c-0.2,0-0.39-0.12-0.47-0.33l-1.33-3.59c-1.41-3.79-2.15-7.59-2.15-10.99v-3.93
			c0-4.67-3.35-10.36-7.47-12.69c-1.92-1.09-3.7-1.27-5-0.51c-1.27,0.74-1.98,2.32-1.98,4.45V138c0,5.09,1.16,10.8,3.34,16.49
			l1.65,4.3c0.1,0.26-0.03,0.55-0.29,0.65c-0.26,0.1-0.55-0.03-0.65-0.29l-1.65-4.3c-2.23-5.81-3.41-11.64-3.41-16.85v-3.47
			c0-2.5,0.88-4.39,2.47-5.32c1.63-0.95,3.75-0.77,6,0.51c4.4,2.49,7.98,8.58,7.98,13.56v3.93c0,3.28,0.72,6.96,2.09,10.65
			l1.33,3.59c0.1,0.26-0.04,0.55-0.29,0.64C395.31,162.11,395.25,162.12,395.2,162.12z"/>
		<path style="fill:#FFFFFF;" d="M390.79,163.55c-0.22,0-0.42-0.14-0.48-0.36l-0.7-2.35c-1.32-4.47-2-8.77-2-12.78v-6.08
			c0-2.51-1.8-5.57-4.02-6.82c-0.99-0.56-1.89-0.66-2.54-0.28c-0.63,0.37-0.98,1.17-0.98,2.27c0,6.75,2.06,14.54,5.79,21.94
			l1.41,2.78c0.12,0.25,0.03,0.55-0.22,0.67c-0.25,0.12-0.55,0.02-0.67-0.22l-1.41-2.78c-3.8-7.53-5.9-15.48-5.9-22.39
			c0-1.46,0.52-2.58,1.48-3.13c0.97-0.56,2.23-0.47,3.54,0.28c2.49,1.41,4.52,4.86,4.52,7.69v6.08c0,3.92,0.66,8.12,1.95,12.5
			l0.7,2.35c0.08,0.26-0.07,0.54-0.34,0.62C390.88,163.55,390.84,163.55,390.79,163.55z"/>
		<path style="fill:#FFFFFF;" d="M385.18,153c-0.23,0-0.44-0.16-0.49-0.39l-0.46-2.14c-0.44-2.05-0.66-4.16-0.66-6.26v-5.64
			c0-0.28,0.22-0.5,0.5-0.5s0.5,0.22,0.5,0.5v5.64c0,2.03,0.22,4.06,0.64,6.05l0.46,2.14c0.06,0.27-0.11,0.54-0.38,0.59
			C385.25,153,385.22,153,385.18,153z"/>
		<path style="fill:#FFFFFF;" d="M369.76,142.15c-0.25,0-0.47-0.19-0.5-0.45l-0.29-2.92c-0.03-0.27,0.17-0.52,0.45-0.55
			c0.3-0.02,0.52,0.17,0.55,0.45l0.29,2.92c0.03,0.27-0.17,0.52-0.45,0.55C369.79,142.15,369.78,142.15,369.76,142.15z"/>
	</g>
	<g>
		<path style="fill:#BA68C8;" d="M412.59,211.54l-48.98-27.74c-1.4-0.81-2.66-0.75-3.56-0.01l-4.23,2.93l2.89,3.57v51.63
			c0,3.61,2.2,7.81,4.9,9.37l47.76,27.04l0.22,3.85l4.46-3.06c0.89-0.67,1.44-1.99,1.44-3.79v-54.41
			C417.5,217.29,415.3,213.1,412.59,211.54z"/>
		<path style="opacity:0.3;" d="M412.59,211.54l-48.98-27.74c-1.4-0.81-2.66-0.75-3.56-0.01l-4.23,2.93l2.89,3.57v51.63
			c0,3.61,2.2,7.81,4.9,9.37l47.76,27.04l0.22,3.85l4.46-3.06c0.89-0.67,1.44-1.99,1.44-3.79v-54.41
			C417.5,217.29,415.3,213.1,412.59,211.54z"/>
		<path style="fill:#BA68C8;" d="M408.43,281.88l-48.98-27.74c-2.71-1.56-4.9-5.76-4.9-9.37v-54.41c0-3.61,2.2-5.27,4.9-3.71
			l48.98,27.74c2.71,1.56,4.9,5.76,4.9,9.37v54.41C413.33,281.79,411.14,283.45,408.43,281.88z"/>
	</g>
	<g>
		<path style="fill:#FFFFFF;" d="M365.45,205.55c-0.28,0-0.5-0.22-0.5-0.5v-3.37c0-0.68,0.35-1.3,0.95-1.64
			c0.61-0.35,1.34-0.36,1.95-0.01l3.54,2c0.24,0.14,0.33,0.44,0.19,0.68c-0.14,0.24-0.44,0.32-0.68,0.19l-3.54-2
			c-0.3-0.17-0.65-0.17-0.95,0.01c-0.29,0.17-0.45,0.45-0.45,0.78v3.37C365.95,205.32,365.73,205.55,365.45,205.55z"/>
		<path style="fill:#FFFFFF;" d="M371.13,251.92c-0.08,0-0.17-0.02-0.25-0.06l-3.3-1.87c-1.63-0.92-2.64-2.64-2.64-4.49v-3.11
			c0-0.28,0.22-0.5,0.5-0.5c0.28,0,0.5,0.22,0.5,0.5v3.11c0,1.49,0.82,2.87,2.13,3.62l3.3,1.87c0.24,0.14,0.33,0.44,0.19,0.68
			C371.48,251.83,371.31,251.92,371.13,251.92z"/>
		<path style="fill:#FFFFFF;" d="M401,268.63c-0.33,0-0.66-0.09-0.96-0.26l-3.54-2c-0.24-0.14-0.33-0.44-0.19-0.68
			c0.14-0.24,0.44-0.32,0.68-0.19l3.54,2c0.3,0.17,0.66,0.17,0.95-0.01c0.29-0.17,0.45-0.45,0.45-0.78v-3.37
			c0-0.28,0.22-0.5,0.5-0.5c0.28,0,0.5,0.22,0.5,0.5v3.37c0,0.68-0.35,1.29-0.95,1.64C401.67,268.54,401.34,268.63,401,268.63z"/>
		<path style="fill:#FFFFFF;" d="M402.43,226.5c-0.28,0-0.5-0.22-0.5-0.5v-3.11c0-1.49-0.82-2.87-2.13-3.62l-3.3-1.87
			c-0.24-0.14-0.33-0.44-0.19-0.68c0.14-0.24,0.44-0.32,0.68-0.19l3.3,1.87c1.63,0.92,2.64,2.64,2.64,4.49V226
			C402.93,226.28,402.71,226.5,402.43,226.5z"/>
	</g>
	<g>
		<path style="fill:#FFFFFF;" d="M369.88,222.37c0.07,5.91,1.03,11.6,2.41,16.8c3.81,14.33,18.79,23.15,22.91,13.44
			c1.64-3.87,2.79-8.81,2.79-15.05c0-8.8-6.3-19.5-14.06-23.9C376.02,209.17,369.77,213.34,369.88,222.37z"/>
	</g>
	<polygon style="fill:#E0E0E0;" points="383.44,230.38 383.44,239.8 379.35,236.74 	"/>
	<g>
		<path style="fill:#E0E0E0;" d="M375.83,224.75c0,0.84,0.6,1.87,1.35,2.29c0.74,0.42,1.35,0.08,1.35-0.76
			c0-0.84-0.6-1.87-1.35-2.29C376.43,223.57,375.83,223.91,375.83,224.75z"/>
		<path style="fill:#E0E0E0;" d="M388.35,231.93c0,0.84,0.6,1.87,1.35,2.29c0.74,0.42,1.35,0.08,1.35-0.76
			c0-0.84-0.6-1.87-1.35-2.29C388.96,230.74,388.35,231.08,388.35,231.93z"/>
	</g>
	<path style="fill:#E0E0E0;" d="M382.09,244.41l4.57-0.78C386.66,243.64,385.69,248.52,382.09,244.41z"/>
</g>
<g id="Character">
	<path style="fill:#FFA8A7;" d="M308.38,253.2c0,0,7.29-0.49,11.42,9.64c2.57,6.3,5.7,16.03,7.7,22.49
		c1.24,4.02-0.04,8.38-3.26,11.08l-12.71,10.66l-4.55-8.27c0,0,4.9-6.54,8.68-9.92l-8.68-26.05L308.38,253.2z"/>
	<path style="fill:#BA68C8;" d="M311.74,284.14c0,0,11.58,1.53,14.47-7.4c0,0-4.96-13.07-7.24-17.41c-2.27-4.34-6.93-7.49-10.6-6.12
		C304.71,254.57,311.74,284.14,311.74,284.14z"/>
	<path style="opacity:0.4;fill:#FFFFFF;" d="M311.74,284.14c0,0,11.58,1.53,14.47-7.4c0,0-4.96-13.07-7.24-17.41
		c-2.27-4.34-6.93-7.49-10.6-6.12C304.71,254.57,311.74,284.14,311.74,284.14z"/>
	<path style="fill:#37474F;" d="M304.01,401.4c0,0-5.5-4.71-7.64-4.93c-2.14-0.22-5.84,3.44-2.71,9.8c0.87,1.77,4.41,3.68,6.62,7.07
		c2.21,3.39,4.2,5.93,7.59,5.47c3.39-0.46,3.83-2.38,3.61-4.59c-0.22-2.21-1.22-6-1.22-6L304.01,401.4z"/>
	<path style="fill:#263238;" d="M308.04,417.79c-3.49,0.48-5.54-2.15-7.82-5.64c-2.28-3.49-5.92-5.47-6.82-7.29
		c-0.39-0.8-0.68-1.56-0.88-2.28c0.13,1.1,0.47,2.32,1.14,3.68c0.87,1.77,4.41,3.68,6.62,7.07c2.21,3.39,4.2,5.93,7.59,5.47
		c2.6-0.35,3.46-1.56,3.62-3.1C311.03,416.74,310.05,417.52,308.04,417.79z"/>
	<path style="fill:#EBEBEB;" d="M301.08,407.46c-0.08,0-0.17-0.02-0.25-0.06c-0.26-0.14-0.36-0.46-0.22-0.72
		c0.07-0.13,1.79-3.29,5.18-4.06c0.29-0.07,0.57,0.12,0.64,0.4c0.07,0.29-0.12,0.57-0.4,0.64c-2.9,0.66-4.45,3.49-4.47,3.52
		C301.45,407.35,301.27,407.46,301.08,407.46z"/>
	<path style="fill:#EBEBEB;" d="M299.02,405.56c-0.09,0-0.17-0.02-0.25-0.06c-0.26-0.14-0.36-0.46-0.22-0.72
		c0.07-0.13,1.79-3.29,5.18-4.06c0.29-0.07,0.57,0.12,0.64,0.4c0.07,0.29-0.12,0.57-0.4,0.64c-2.9,0.66-4.45,3.49-4.47,3.52
		C299.4,405.46,299.21,405.56,299.02,405.56z"/>
	<path style="fill:#EBEBEB;" d="M296.67,403.67c-0.09,0-0.17-0.02-0.25-0.06c-0.26-0.14-0.36-0.46-0.22-0.72
		c0.07-0.13,1.79-3.29,5.17-4.06c0.29-0.07,0.57,0.12,0.64,0.4s-0.12,0.57-0.4,0.64c-2.9,0.66-4.45,3.49-4.47,3.52
		C297.05,403.57,296.86,403.67,296.67,403.67z"/>
	<path style="fill:#37474F;" d="M274.73,416.85c0,0-7.37-2.39-9.57-1.73c-2.2,0.66-4.35,5.8,1.35,10.79
		c1.59,1.39,5.86,1.83,9.44,4.26c3.57,2.44,6.59,4.13,9.74,2.28c3.16-1.85,2.9-3.98,2.34-6.29c-0.72-2.94-1.29-5.08-1.29-5.08
		L274.73,416.85z"/>
	<path style="fill:#263238;" d="M285.45,431.38c-3.25,1.91-6.36,0.16-10.04-2.35c-3.68-2.51-8.09-2.96-9.73-4.39
		c-0.72-0.63-1.31-1.26-1.8-1.89c0.58,1.03,1.42,2.1,2.63,3.16c1.59,1.39,5.86,1.83,9.44,4.26c3.57,2.44,6.59,4.13,9.74,2.28
		c2.42-1.42,2.77-2.96,2.3-4.55C287.97,429.11,287.32,430.28,285.45,431.38z"/>
	<path style="fill:#EBEBEB;" d="M272.97,423.66c-0.02,0-0.04,0-0.05,0c-0.29-0.03-0.51-0.29-0.48-0.58
		c0.02-0.16,0.41-3.96,3.43-6.11c0.24-0.17,0.57-0.11,0.75,0.13c0.17,0.24,0.11,0.57-0.13,0.75c-2.61,1.85-2.98,5.3-2.98,5.34
		C273.48,423.45,273.24,423.66,272.97,423.66z"/>
	<path style="fill:#EBEBEB;" d="M276.02,424.65c-0.02,0-0.04,0-0.05,0c-0.29-0.03-0.51-0.29-0.48-0.58
		c0.02-0.16,0.41-3.96,3.43-6.11c0.24-0.17,0.57-0.12,0.75,0.13c0.17,0.24,0.11,0.57-0.13,0.75c-2.61,1.85-2.98,5.3-2.98,5.34
		C276.52,424.45,276.29,424.65,276.02,424.65z"/>
	<path style="fill:#EBEBEB;" d="M270.16,422.63c-0.02,0-0.04,0-0.05,0c-0.29-0.03-0.51-0.29-0.48-0.58
		c0.02-0.16,0.41-3.96,3.43-6.11c0.24-0.17,0.57-0.11,0.75,0.13c0.17,0.24,0.11,0.57-0.13,0.75c-2.61,1.85-2.98,5.3-2.98,5.34
		C270.67,422.43,270.44,422.63,270.16,422.63z"/>
	<g>
		<path style="fill:#455A64;" d="M310.6,402.8c0.66-7.3,2.09-18.74,2.69-24.09c1.06-9.56,0.09-16.85-0.58-20.31
			c-0.3-1.59-0.39-3.19-0.23-4.8c1.45-14.54,2.39-38.11,1.59-43.29l-20.41,4.32c0,0,2.5,33.07,3.59,44.06
			c1.1,11.07,5.21,44.2,5.21,44.2C304.17,403.9,307.27,405,310.6,402.8z"/>
		<path style="fill:#FFA8A7;" d="M307.66,410.31c1.77-0.28,2.6-2.1,2.6-2.1c0-1.15,0.13-3.07,0.34-5.41c-3.33,2.2-6.43,1.1-8.14,0.1
			l0.72,6.14C304.01,409.98,305.89,410.59,307.66,410.31z"/>
	</g>
	<path style="fill:#455A64;" d="M287.64,415.64c0.83-11.05,2.44-32.47,2.66-35.83c0.22-3.39-0.16-8.07-0.7-11.11
		c-0.35-1.98-0.32-4.01,0.03-5.99l8.97-49.77l-24.67-0.36l-1.61,52.14c-0.02,0.67,0,1.35,0.08,2.02l5.23,48.6l0,0
		C277.62,415.33,282.72,419.6,287.64,415.64z"/>
	<path style="fill:#FFA8A7;" d="M283.52,424.76c1.77-0.17,3.37-1.66,3.62-2.54c0,0,0.2-2.64,0.5-6.59
		c-4.91,3.97-10.02-0.31-10.02-0.31l0,0l0.78,7.29C278.4,422.61,279.56,425.13,283.52,424.76z"/>
	<path style="fill:#BA68C8;" d="M285.32,256.52l-5.82,1.99l-6.26,29.61l0.3,26.26c0,0,4.47,3.56,21.93,3.56
		c9.8,0,16.18-3.69,18.59-7.62l-1.57-15.86c0,0,1.57-15.63,1.57-23.36c0-7.73,0.34-14.06-5.7-17.89l-5.38,0.44L285.32,256.52z"/>
	<path style="opacity:0.2;fill:#FFFFFF;" d="M285.32,256.52l-5.82,1.99l-6.26,29.61l0.3,26.26c0,0,4.47,3.56,21.93,3.56
		c9.8,0,16.18-3.69,18.59-7.62l-1.57-15.86c0,0,1.57-15.63,1.57-23.36c0-7.73,0.34-14.06-5.7-17.89l-5.38,0.44L285.32,256.52z"/>
	<path style="fill:#F28F8F;" d="M279,231.07l-2.91,5.77c-0.18,0.36,0,0.79,0.38,0.92l3.46,1.15L279,231.07z"/>
	<path style="fill:#FFA8A7;" d="M283.04,221.4c0,0-4.42,2.38-4.42,16.04c0,7.51,0.52,12.3,4.42,12.01
		c3.9-0.29,15.14-1.77,15.14-1.77V221.4H283.04z"/>
	<path style="fill:#F28F8F;" d="M283.04,249.45c1.37-0.1,3.65-0.35,6.03-0.63v-1.39c-2.19,1.12-6.09,1.91-6.68,2.02
		C282.59,249.46,282.81,249.46,283.04,249.45z"/>
	<polygon style="fill:#FFA8A7;" points="288.4,246.84 288.4,255.41 300.13,255.41 300.13,243.37 	"/>
	<path style="fill:#BA68C8;" d="M288.4,252.15c0,0,4.22,1.5,7.61,0.91c3.39-0.59,4.12-2.65,4.12-2.65s1.1-0.08,2.87,3.24
		c0,0-2.07,4.14-6.85,4.42c-6.26,0.37-10.83-1.55-10.83-1.55S286.95,251.72,288.4,252.15z"/>
	<path style="opacity:0.4;fill:#FFFFFF;" d="M288.4,252.15c0,0,4.22,1.5,7.61,0.91c3.39-0.59,4.12-2.65,4.12-2.65
		s1.1-0.08,2.87,3.24c0,0-2.07,4.14-6.85,4.42c-6.26,0.37-10.83-1.55-10.83-1.55S286.95,251.72,288.4,252.15z"/>
	<path style="fill:#FFA8A7;" d="M262.23,277.59l-3.15,4.85c0,0-7.65-3.41-13.02-5.48c-5.38-2.07-8.58-4.94-8.58-4.94
		s0.41-4.1,1.03-6.2c0.62-2.09,0.83-3.85-1.03-2.92c-1.86,0.93-3.1,4.55-3.2,4.96c0,0-10.75-10.8-12.09-10.57
		c-1.34,0.23-1.03,1.86,1.86,5.19c2.89,3.33,2.89,3.33,2.89,3.33s-6.59,3.8-5.52,7.93s9.76,6,9.76,6s25.42,19.54,31.06,16.02
		c5.64-3.51,13.6-13.65,13.6-13.65L262.23,277.59z"/>
	<path style="fill:#BA68C8;" d="M281.81,257.75c0,0,4.69,3.86,1.63,11.84c-3.06,7.98-10.87,17.62-10.87,17.62s-8.19-2.54-11.34-9.16
		l10.32-16.15c1.49-2.33,3.99-3.82,6.76-4C279.29,257.84,280.45,257.79,281.81,257.75z"/>
	<path style="opacity:0.4;fill:#FFFFFF;" d="M281.81,257.75c0,0,4.69,3.86,1.63,11.84c-3.06,7.98-10.87,17.62-10.87,17.62
		s-8.19-2.54-11.34-9.16l10.32-16.15c1.49-2.33,3.99-3.82,6.76-4C279.29,257.84,280.45,257.79,281.81,257.75z"/>
	<path style="fill:#263238;" d="M281.35,213.36c0,0-4.64-0.62-5.82,2.58c-0.74,1.99,1.62,3.54,1.62,3.54s-2.99,2.82,1.47,3.68
		c0,0-0.37,3.83,3.61,3.31c0,0-0.52,3.04,3.39,4.1c0,0-1.97,5.26,1.74,5.33h3.48l-1.4,4.05c0,0,2.6,6.26,10.7,6.26
		c0,0,2.06-4.27,3.02-5.52c0.96-1.25,5.97-7.66,5.97-12.74c0-5.08-1.96-8.09-4.66-8.76c0,0-1.16-2.8-3.88-4.64
		c-2.73-1.84-8.47-3.48-11.71-1.23c0,0-2.87-3.77-4.86-3.77C282.01,209.54,281.35,211.59,281.35,213.36z"/>
	<path style="fill:#FFA8A7;" d="M287.36,235.89c0,0-0.34-5.33,4.15-5.33s3.43,9.38-2.08,9.38L287.36,235.89z"/>
</g>
</svg>
