<svg id="Layer_1" data-name="Layer 1" xmlns="http://www.w3.org/2000/svg" viewBox="0 0 192 22"><title>03_Artboard 1</title><rect x="6.82" y="7.62" width="6.77" height="6.77" transform="translate(-4.79 10.44) rotate(-45.01)"/><polygon points="22.39 9.5 20.7 11 22.39 12.5 77.19 12.48 186.58 11 77.19 9.52 22.39 9.5"/><path d="M77.41,13.71H21.49L18.78,11l2.71-2.71H77.41a6.18,6.18,0,0,0,6.17-6.17.35.35,0,0,0-.34-.34.34.34,0,0,0-.34.34,5.49,5.49,0,0,1-5.49,5.49H21.21L18.3,10.52,15.49,7.71a.34.34,0,1,0-.48.48L17.82,11,15,13.81a.33.33,0,0,0,0,.48.31.31,0,0,0,.24.1.34.34,0,0,0,.24-.1l2.81-2.81,2.91,2.91h56.2a5.49,5.49,0,0,1,5.49,5.49.34.34,0,0,0,.34.34.35.35,0,0,0,.34-.34A6.18,6.18,0,0,0,77.41,13.71Z"/></svg>