<svg xmlns="http://www.w3.org/2000/svg" viewBox="0 0 275.77 333.54"><defs><style>.cls-1{isolation:isolate;}.cls-2{fill:#dadada;}.cls-12,.cls-17,.cls-2,.cls-23,.cls-25,.cls-8{mix-blend-mode:multiply;}.cls-3{fill:#7d4e24;}.cls-4{fill:#683c11;}.cls-5{fill:#9f6231;}.cls-6{fill:#e51e32;}.cls-7{fill:none;}.cls-8{fill:#c7adac;}.cls-9{fill:#259dab;}.cls-10{fill:#b2b2b2;}.cls-11{fill:#a1d2d9;}.cls-13{fill:#aec8d7;}.cls-14{fill:#55aea3;}.cls-15{fill:#ffde00;}.cls-16{fill:#e52823;}.cls-17{fill:#e73c1e;}.cls-18,.cls-22{fill:#fff;}.cls-19{fill:#7f5131;}.cls-20{fill:#5c3a21;}.cls-21,.cls-25{fill:#d42a26;}.cls-22{opacity:0.5;mix-blend-mode:soft-light;}.cls-23{fill:#ededed;}.cls-24{fill:#e73536;}.cls-26{fill:#8f2015;}.cls-27{fill:#aaca43;}</style></defs><title>room</title><g class="cls-1"><g id="Capa_1" data-name="Capa 1"><path class="cls-2" d="M330.42,359.33c0,4.77-41,8.64-91.6,8.64s-91.6-3.87-91.6-8.64,41-8.63,91.6-8.63S330.42,354.56,330.42,359.33Z" transform="translate(-64.84 -34.43)"/><path class="cls-2" d="M142.5,352.77c0,3.89-17.38,7.05-38.83,7.05s-38.83-3.16-38.83-7.05,17.38-7,38.83-7S142.5,348.88,142.5,352.77Z" transform="translate(-64.84 -34.43)"/><rect class="cls-3" x="80.55" y="15.38" width="77.59" height="77.59"/><rect class="cls-4" x="88.18" y="23.02" width="62.32" height="62.32"/><polygon class="cls-5" points="104.98 17.29 152.54 20.29 155.94 68.81 155.94 17.29 104.98 17.29"/><rect class="cls-6" x="92.18" y="27.02" width="54.32" height="54.32"/><line class="cls-7" x1="96.55" y1="81.34" x2="96.55" y2="27.02"/><line class="cls-7" x1="92.18" y1="76.41" x2="146.5" y2="76.41"/><polygon class="cls-8" points="133.34 91.01 85.78 88.01 82.39 39.49 82.39 91.01 133.34 91.01"/><rect class="cls-3" x="177.7" width="77.59" height="124.47"/><rect class="cls-4" x="185.33" y="7.63" width="62.31" height="109.2"/><polygon class="cls-5" points="202.13 1.91 249.69 4.91 253.08 100.32 253.08 1.91 202.13 1.91"/><rect class="cls-9" x="189.33" y="11.63" width="54.32" height="101.21"/><line class="cls-7" x1="193.69" y1="112.84" x2="193.69" y2="11.63"/><line class="cls-7" x1="189.33" y1="107.91" x2="243.65" y2="107.91"/><polygon class="cls-8" points="230.49 122.51 182.93 119.51 179.53 24.11 179.53 122.51 230.49 122.51"/><path d="M118.63,139.4a.92.92,0,0,1-.61-.25,1,1,0,0,1-.26-.63.94.94,0,0,1,.26-.61.89.89,0,0,1,1.24,0,.92.92,0,0,1,.25.62.85.85,0,0,1-.25.61A.86.86,0,0,1,118.63,139.4Z" transform="translate(-64.84 -34.43)"/><path d="M117.76,145.74a.89.89,0,0,1,.87-.88h0a.89.89,0,0,1,.88.88h0a.87.87,0,0,1-.88.87h0A.87.87,0,0,1,117.76,145.74Zm0-1.8a.88.88,0,0,1,.87-.88h0a.87.87,0,0,1,.88.88h0a.87.87,0,0,1-.88.87h0A.87.87,0,0,1,117.76,143.94Zm0-1.8a.87.87,0,0,1,.87-.87h0a.87.87,0,0,1,.88.87h0a.88.88,0,0,1-.88.87h0A.88.88,0,0,1,117.76,142.14Zm0-1.82a.88.88,0,0,1,.87-.87h0a.88.88,0,0,1,.88.87h0a.87.87,0,0,1-.88.88h0A.88.88,0,0,1,117.76,140.32Z" transform="translate(-64.84 -34.43)"/><path d="M118.63,148.43a.88.88,0,0,1-.61-1.51.9.9,0,0,1,1.24,0,.85.85,0,0,1,.25.61.89.89,0,0,1-.25.62A1,1,0,0,1,118.63,148.43Z" transform="translate(-64.84 -34.43)"/><rect class="cls-10" x="36.95" y="100.6" width="3.76" height="11.28"/><rect class="cls-11" x="34.12" y="109.15" width="9.44" height="203.23"/><g class="cls-12"><rect class="cls-13" x="34.12" y="109.15" width="5.65" height="203.23"/></g><path class="cls-14" d="M123.13,345.82c0,2.05-1.06,3.71-2.36,3.71H86.57c-1.3,0-2.36-1.66-2.36-3.71h0c0-2.05,1.06-3.71,2.36-3.71h34.2c1.3,0,2.36,1.66,2.36,3.71Z" transform="translate(-64.84 -34.43)"/><g class="cls-12"><path class="cls-13" d="M84.23,346.11c.1,1.91,1.1,3.42,2.34,3.42h34.2c1.24,0,2.24-1.51,2.34-3.42Z" transform="translate(-64.84 -34.43)"/></g><path class="cls-15" d="M121.3,150.86a2.66,2.66,0,1,1-2.66-2.66A2.66,2.66,0,0,1,121.3,150.86Z" transform="translate(-64.84 -34.43)"/><path class="cls-14" d="M126.39,352.26c0,2.05-1.24,3.71-2.76,3.71H83.71c-1.52,0-2.76-1.66-2.76-3.71h0c0-2.05,1.24-3.71,2.76-3.71h39.92c1.52,0,2.76,1.66,2.76,3.71Z" transform="translate(-64.84 -34.43)"/><g class="cls-12"><path class="cls-13" d="M81,352.77c.19,1.8,1.33,3.2,2.72,3.2h39.92c1.39,0,2.53-1.4,2.72-3.2Z" transform="translate(-64.84 -34.43)"/></g><polygon class="cls-16" points="31.97 51.11 5.48 104.09 72.19 104.09 45.7 51.11 31.97 51.11"/><path class="cls-17" d="M103.2,129.25c-1.64-8-3.3-15.71-3.16-23.92a80.07,80.07,0,0,1,2.56-19.79H96.8l-26.49,53h35.23A78,78,0,0,1,103.2,129.25Z" transform="translate(-64.84 -34.43)"/><path class="cls-18" d="M109.45,87.72a95.35,95.35,0,0,0,7.38,22c8.1,17.24,17.1,26.78,17.1,26.78Z" transform="translate(-64.84 -34.43)"/><line class="cls-7" x1="36.81" y1="306.88" x2="36.81" y2="125.78"/><line class="cls-7" x1="36.81" y1="122.18" x2="36.81" y2="117.01"/><line class="cls-7" x1="40.71" y1="128.14" x2="40.71" y2="270.44"/><path class="cls-18" d="M119.51,151.73a.88.88,0,1,1-.88-.87A.87.87,0,0,1,119.51,151.73Z" transform="translate(-64.84 -34.43)"/><line class="cls-7" x1="58.29" y1="316.16" x2="41.7" y2="316.16"/><line class="cls-7" x1="55.12" y1="309.83" x2="36.02" y2="309.83"/><path class="cls-19" d="M331.06,334a6.85,6.85,0,0,1-6.89,6.8H148.83a6.85,6.85,0,0,1-6.89-6.8h0a6.85,6.85,0,0,1,6.89-6.81H324.17a6.85,6.85,0,0,1,6.89,6.81Z" transform="translate(-64.84 -34.43)"/><polygon class="cls-20" points="104.88 306.36 109.01 327.41 115.77 327.41 118.92 306.36 104.88 306.36"/><polygon class="cls-20" points="224.4 306.36 228.52 327.41 235.29 327.41 238.44 306.36 224.4 306.36"/><rect class="cls-21" x="114.15" y="139.53" width="114.99" height="101.73" rx="12.23"/><path class="cls-22" d="M283.86,185c-8-6.72-26.79-7.55-35.5-1.8-5.05,3.33-5.4,10.23-4.94,15.67.89,10.32,2.52,26.51,14.12,30.24,6.35,2,14.22,1.82,19.75-2.3,6.12-4.56,8.53-12.1,9.7-19.36.95-5.92,2.42-14-.66-19.47A10.8,10.8,0,0,0,283.86,185Z" transform="translate(-64.84 -34.43)"/><path class="cls-23" d="M271.42,263.22a186.23,186.23,0,0,1-40.36,1.41c-7.95-.56-17.16-.58-24.23-4.84-5.25-3.16-8.2-8.3-9.44-14.22-1.93-9.13-1.8-18.82-1.85-28.12-.08-15,1.36-30.88,9.19-43.5H191.22A12.24,12.24,0,0,0,179,186.19v77.26a12.24,12.24,0,0,0,12.23,12.24h90.53A12.24,12.24,0,0,0,294,263.45v-7.84C287.34,261.18,280.25,261.87,271.42,263.22Z" transform="translate(-64.84 -34.43)"/><rect class="cls-23" x="116.65" y="234.93" width="106.8" height="35.09"/><rect class="cls-24" x="119.85" y="237.2" width="103.6" height="35.09"/><path class="cls-22" d="M208.16,278.23c8.86.48,17.71.07,26.57.23,13.1.22,26.19.33,39-2.87a99.57,99.57,0,0,0,12.22-4H184.68v1.24C191.36,277.15,200.65,277.82,208.16,278.23Z" transform="translate(-64.84 -34.43)"/><rect class="cls-25" x="119.85" y="265.67" width="103.6" height="6.36"/><rect class="cls-21" x="78.27" y="270.03" width="186.76" height="26.74"/><path class="cls-21" d="M186.73,246.2A27.2,27.2,0,1,0,143.1,269v62.16h43.69v-85Z" transform="translate(-64.84 -34.43)"/><path class="cls-22" d="M159.35,227.73c-4.64,2.52-6.76,9.36-6.22,14.82.81,8.11,6,13.69,14.26,14.37,3.36.28,7.89.79,10.81-1.31,4.05-2.93,3.75-9.65,2.31-13.9-2.14-6.34-7.71-12.61-14.2-14.52A8.82,8.82,0,0,0,159.35,227.73Z" transform="translate(-64.84 -34.43)"/><path class="cls-22" d="M179.09,280.45a.93.93,0,0,1-.24,0,60.92,60.92,0,0,0-9.64.54c-5.69.67-8.93,2.75-9.71,8.75-1.19,9.21.4,10.94.79,20.17.35,8,12.74,11.43,18.8,7.87l-.24-37.33" transform="translate(-64.84 -34.43)"/><path class="cls-25" d="M180.92,324.41c-7.56,2-22.47,3.85-24.88-6.59-1.75-7.58-.85-15.08-.72-22.69.08-5.09-.4-2.07-.12-7.16.18-3.31.22-7.77,2.22-10.59,3.55-5,9.67-2.76,14.77-3.95,2.18-.51,9.21-5.17,5.21-7.69-2.18-1.37-5-1.64-7.49-1.86-5.2-.46-10.64-.54-15.16-3.6-5.29-3.58-7.64-9.66-7.84-15.93-.28-9,3.85-19.39,11.53-24.11A27.17,27.17,0,0,0,143.1,269v62.16h43.69V320.61A10.64,10.64,0,0,1,180.92,324.41Z" transform="translate(-64.84 -34.43)"/><path class="cls-26" d="M143.1,331.19c7.28-.23,14.57-.33,21.85-.5l21.84-.28-.78.78c-.11-7.08-.08-14.16-.13-21.25l-.09-21.24.09-21.25.05-10.62c0-3.54.06-7.08.1-10.63l.76.76h-.06a.76.76,0,0,1-.75-.7v0l-.2-2.52-.44-2.49c-.2-.82-.45-1.62-.67-2.44s-.6-1.58-.9-2.37-.75-1.51-1.13-2.27-.89-1.44-1.34-2.16l-1.53-2L178,228.09l-1.88-1.72c-.69-.51-1.36-1-2-1.53s-1.45-.91-2.19-1.33-1.52-.78-2.31-1.13-1.59-.62-2.41-.89-1.65-.47-2.49-.67-1.69-.31-2.55-.44l-2.58-.2,2.6.06c.86.08,1.72.2,2.59.3s1.69.37,2.55.56,1.65.54,2.48.8,1.61.7,2.41,1,1.53.84,2.3,1.27,1.45,1,2.17,1.49l2,1.69,1.85,1.89,1.65,2.06c.48.74,1,1.47,1.45,2.21s.85,1.56,1.24,2.35.7,1.63,1,2.46.54,1.69.77,2.54.37,1.74.53,2.61l.28,2.65-.76-.72h.06a.75.75,0,0,1,.76.73h0v0c0,3.55.1,7.09.1,10.63l0,10.62.09,21.25-.09,21.24c0,7.09,0,14.17-.13,21.25v0a.76.76,0,0,1-.78.76L165,331.69C157.67,331.52,150.38,331.42,143.1,331.19Z" transform="translate(-64.84 -34.43)"/><path class="cls-21" d="M286.23,246.2A27.2,27.2,0,1,1,329.86,269v62.16H286.18v-85Z" transform="translate(-64.84 -34.43)"/><path class="cls-22" d="M313.62,227.73c4.64,2.52,6.76,9.36,6.21,14.82-.8,8.11-6,13.69-14.25,14.37-3.36.28-7.9.79-10.81-1.31-4-2.93-3.75-9.65-2.31-13.9,2.14-6.34,7.7-12.61,14.2-14.52A8.83,8.83,0,0,1,313.62,227.73Z" transform="translate(-64.84 -34.43)"/><path class="cls-22" d="M293.88,280.45a.93.93,0,0,0,.24,0,60.79,60.79,0,0,1,9.63.54c5.7.67,8.94,2.75,9.71,8.75,1.2,9.21-.39,10.94-.79,20.17-.35,8-12.73,11.43-18.79,7.87l.24-37.33" transform="translate(-64.84 -34.43)"/><path class="cls-25" d="M292.05,324.41c7.56,2,22.47,3.85,24.87-6.59,1.75-7.58.85-15.08.73-22.69-.09-5.09.39-2.07.12-7.16-.18-3.31-.22-7.77-2.23-10.59-3.54-5-9.66-2.76-14.76-3.95-2.18-.51-9.21-5.17-5.21-7.69,2.17-1.37,5-1.64,7.48-1.86,5.21-.46,10.65-.54,15.16-3.6,5.29-3.58,7.65-9.66,7.85-15.93.28-9-3.86-19.39-11.53-24.11A27.17,27.17,0,0,1,329.86,269v62.16H286.18V320.61A10.64,10.64,0,0,0,292.05,324.41Z" transform="translate(-64.84 -34.43)"/><path class="cls-26" d="M329.86,331.19c-7.28.23-14.56.33-21.84.5l-21.84.28a.76.76,0,0,1-.78-.76v0c-.12-7.08-.09-14.16-.14-21.25l-.08-21.24.09-21.25.05-10.62c0-3.54.05-7.08.1-10.63v0a.73.73,0,0,1,.76-.73h.05l-.75.72.28-2.65c.16-.87.35-1.74.52-2.61s.52-1.7.78-2.54.67-1.64,1-2.46.83-1.56,1.24-2.35,1-1.47,1.45-2.21l1.66-2.06,1.85-1.89,2-1.7c.73-.49,1.44-1,2.18-1.48s1.52-.88,2.29-1.27,1.6-.73,2.41-1,1.65-.57,2.49-.8,1.7-.41,2.55-.56,1.73-.22,2.59-.3l2.6-.06-2.59.2c-.85.13-1.7.3-2.54.44s-1.67.45-2.49.67-1.61.6-2.42.89-1.54.75-2.31,1.12-1.45.9-2.18,1.34-1.37,1-2.05,1.53l-1.89,1.72L293.2,230l-1.54,2c-.45.72-.91,1.43-1.34,2.16s-.77,1.51-1.12,2.27-.63,1.57-.91,2.37-.46,1.62-.67,2.44l-.43,2.49-.2,2.52h0a.78.78,0,0,1-.76.71h-.05l.75-.76c.05,3.55.1,7.09.11,10.63l0,10.62.09,21.25-.08,21.24c0,7.09,0,14.17-.13,21.25l-.78-.78,21.84.28C315.3,330.86,322.58,331,329.86,331.19Z" transform="translate(-64.84 -34.43)"/><path class="cls-27" d="M283.31,271a6.26,6.26,0,0,0-2.63-4.13s-4.11-26.47-.58-49c0-.07.44-.32.49-.37a6.39,6.39,0,0,0,1.88-3.19A15.51,15.51,0,0,0,283,211c0-.65-.26-2.18-1.32-1.92-1.42.35-2.78.84-4.26,1.06a34.54,34.54,0,0,1-7,.29H224.77a34.63,34.63,0,0,1-7.05-.29c-1.47-.22-2.83-.71-4.25-1.06-1.06-.26-1.34,1.27-1.32,1.92a16.13,16.13,0,0,0,.55,3.37,6.54,6.54,0,0,0,1.88,3.19c.06.05.49.3.5.37,3.53,22.5-.58,49-.58,49a6.23,6.23,0,0,0-2.63,4.13,10.45,10.45,0,0,0-.15,2c0,.52.28,1.29.88,1.34s1.67-.85,2.41-1a11.73,11.73,0,0,1,4.72,0,8.76,8.76,0,0,1,1,.25c3.69,1.32,17.86,1.43,26.85,1.36s23.16,0,26.85-1.36a8.28,8.28,0,0,1,1-.25,11.73,11.73,0,0,1,4.72,0c.74.17,1.67,1.08,2.41,1s.87-.82.88-1.34A11.31,11.31,0,0,0,283.31,271Z" transform="translate(-64.84 -34.43)"/><path class="cls-22" d="M263.69,222.72c-2.09.37-8.76,2.23-7,5.58a13.3,13.3,0,0,0,3.2,3.41,26,26,0,0,1,3.68,3.59c2.81,3.64,2.23,8.28,2.29,12.6s1,9.07,5.74,10.23a13.91,13.91,0,0,0,4.32.32c-.67-8.51-1.06-20.71.68-31.81,0-.06.38-.27.43-.32a5.56,5.56,0,0,0,1.64-2.79,13.18,13.18,0,0,0,.48-2.93c0-.57-.22-1.9-1.14-1.68-1.24.31-2.43.73-3.72.93-.44.07-.88.12-1.32.16C270.44,222.15,266.91,222.14,263.69,222.72Z" transform="translate(-64.84 -34.43)"/><path class="cls-2" d="M280.68,266.85s-.41-2.68-.87-7.06l-1.56.08c-6,.33-12,.88-18.07,1.3-5.49.38-11.43.59-16.63-1.52a15.79,15.79,0,0,1-9.2-9.45c-1.52-4.4-1.47-9.16-1.25-13.75.21-4.25.08-8.75,1.1-12.9a9.48,9.48,0,0,1,4.64-6.41c3.68-2,8.16-2.74,12.2-3.6,5.37-1.14,10.91-1.64,16.19-3.16H224.77a34.63,34.63,0,0,1-7.05-.29c-1.47-.22-2.83-.71-4.25-1.06-1.06-.26-1.34,1.27-1.32,1.92a16.13,16.13,0,0,0,.55,3.37,6.54,6.54,0,0,0,1.88,3.19c.06.05.49.3.5.37,3.53,22.5-.58,49-.58,49a6.23,6.23,0,0,0-2.63,4.13,10.45,10.45,0,0,0-.15,2c0,.52.28,1.29.88,1.34s1.67-.85,2.41-1a11.73,11.73,0,0,1,4.72,0,8.76,8.76,0,0,1,1,.25c3.69,1.32,17.86,1.43,26.85,1.36s23.16,0,26.85-1.36a8.28,8.28,0,0,1,1-.25,11.73,11.73,0,0,1,4.72,0c.74.17,1.67,1.08,2.41,1s.87-.82.88-1.34a11.31,11.31,0,0,0-.15-2A6.26,6.26,0,0,0,280.68,266.85Z" transform="translate(-64.84 -34.43)"/><path class="cls-2" d="M280.68,266.85s-.13-.86-.33-2.38a14.35,14.35,0,0,1-2.8,1.71c-3.48,1.6-7.13,1.74-10.9,1.51a126.28,126.28,0,0,0-13.48.21c-3.55.16-7.11.32-10.66.32a32.67,32.67,0,0,1-8.31-.76,17.92,17.92,0,0,1-10.12-6.73,23.8,23.8,0,0,1-4.14-11.84c-.4-4.55.16-9.2.31-13.75.27-7.95,1-17.73,9.28-21.47a32.85,32.85,0,0,1,8.61-2.26,89.42,89.42,0,0,1,9.79-.87c1.77-.07,3.54-.11,5.31-.16H224.77a34.63,34.63,0,0,1-7.05-.29c-1.47-.22-2.83-.71-4.25-1.06-1.06-.26-1.34,1.27-1.32,1.92a16.13,16.13,0,0,0,.55,3.37,6.54,6.54,0,0,0,1.88,3.19c.06.05.49.3.5.37,3.53,22.5-.58,49-.58,49a6.23,6.23,0,0,0-2.63,4.13,10.45,10.45,0,0,0-.15,2c0,.52.28,1.29.88,1.34s1.67-.85,2.41-1a11.73,11.73,0,0,1,4.72,0,8.76,8.76,0,0,1,1,.25c3.69,1.32,17.86,1.43,26.85,1.36s23.16,0,26.85-1.36a8.28,8.28,0,0,1,1-.25,11.73,11.73,0,0,1,4.72,0c.74.17,1.67,1.08,2.41,1s.87-.82.88-1.34a11.31,11.31,0,0,0-.15-2A6.26,6.26,0,0,0,280.68,266.85Z" transform="translate(-64.84 -34.43)"/></g></g></svg>