<?xml version="1.0" encoding="utf-8"?>
<!-- Generator: Adobe Illustrator 23.1.0, SVG Export Plug-In . SVG Version: 6.00 Build 0)  -->
<svg version="1.1" id="Layer_1" xmlns="http://www.w3.org/2000/svg" xmlns:xlink="http://www.w3.org/1999/xlink" x="0px" y="0px"
	 viewBox="0 0 612 792" style="enable-background:new 0 0 612 792;" xml:space="preserve">
<style type="text/css">
	.st0{fill:#764B31;}
	.st1{fill:#55341D;}
	.st2{fill:#D83633;}
	.st3{fill:#E6E7E8;}
	.st4{fill:#EF4241;}
	.st5{opacity:0.5;fill:#FFFFFF;}
	.st6{fill:#8C1D19;}
	.st7{fill:#D1D3D4;}
	.st8{fill:#A7A9AC;}
	.st9{fill:#93CED4;}
	.st10{fill:#9CC0D1;}
	.st11{fill:#52B0A3;}
	.st12{fill:#FFDE17;}
	.st13{fill:#F99D2B;}
	.st14{fill:#FFFFFF;}
	.st15{fill:none;}
	.st16{fill:#754C29;}
	.st17{fill:#603913;}
	.st18{fill:#9B653A;}
	.st19{fill:#ED2024;}
	.st20{fill:#C1A1A0;}
</style>
<path class="st0" d="M461.8,557.1c0,5.1-4.2,9.3-9.4,9.3H212.5c-5.2,0-9.4-4.2-9.4-9.3l0,0c0-5.1,4.2-9.3,9.4-9.3h239.9
	C457.6,547.8,461.8,552,461.8,557.1L461.8,557.1z"/>
<polygon class="st1" points="241.1,566.5 246.8,595.2 256,595.2 260.3,566.5 "/>
<polygon class="st1" points="404.6,566.5 410.3,595.2 419.5,595.2 423.8,566.5 "/>
<path class="st2" d="M411.1,460.7c0,9.2-7.5,16.7-16.7,16.7H270.5c-9.2,0-16.7-7.5-16.7-16.7V355c0-9.2,7.5-16.7,16.7-16.7h123.8
	c9.2,0,16.7,7.5,16.7,16.7V460.7z"/>
<rect x="257.2" y="468.7" class="st3" width="146.1" height="48"/>
<rect x="261.6" y="471.8" class="st4" width="141.7" height="48"/>
<path class="st5" d="M293.7,480.9c12.1,0.7,24.2,0.1,36.4,0.3c17.9,0.3,35.8,0.5,53.3-3.9c5.7-1.4,11.3-3.3,16.7-5.4H261.6v1.7
	C270.7,479.4,283.4,480.3,293.7,480.9z"/>
<rect x="261.6" y="510.8" class="st2" width="141.7" height="8.7"/>
<rect x="204.7" y="516.7" class="st2" width="255.5" height="36.6"/>
<path class="st2" d="M264.4,437.1c-0.9-19.8-17.1-35.6-37.1-35.6c-20.6,0-37.2,16.7-37.2,37.2c0,12.1,5.8,22.8,14.7,29.6v85h59.8
	L264.4,437.1L264.4,437.1z"/>
<path class="st5" d="M226.9,411.8c-6.3,3.5-9.2,12.8-8.5,20.3c1.1,11.1,8.2,18.7,19.5,19.7c4.6,0.4,10.8,1.1,14.8-1.8
	c5.5-4,5.1-13.2,3.2-19c-2.9-8.7-10.5-17.3-19.4-19.9C232.7,409.9,229.5,410.4,226.9,411.8z"/>
<path class="st5" d="M253.9,483.9c-0.1,0-0.2,0.1-0.3,0.1c-4.4-0.2-8.8,0.2-13.2,0.7c-7.8,0.9-12.2,3.8-13.3,12
	c-1.6,12.6,0.5,15,1.1,27.6c0.5,11,17.4,15.6,25.7,10.8l-0.3-51.1"/>
<path class="st2" d="M256.4,544.1c-10.3,2.8-30.7,5.3-34-9c-2.4-10.4-1.2-20.6-1-31c0.1-7-0.5-2.8-0.2-9.8c0.2-4.5,0.3-10.6,3-14.5
	c4.8-6.8,13.2-3.8,20.2-5.4c3-0.7,12.6-7.1,7.1-10.5c-3-1.9-6.8-2.2-10.2-2.6c-7.1-0.6-14.6-0.7-20.7-4.9
	c-7.2-4.9-10.5-13.2-10.7-21.8c-0.4-12.3,5.3-26.5,15.8-33c-19.8,0.8-35.7,17.1-35.7,37.2c0,12.1,5.8,22.8,14.7,29.6v85h59.8v-14.5
	C262.6,541.2,260,543.1,256.4,544.1z"/>
<path class="st6" d="M204.7,553.3c10-0.3,19.9-0.5,29.9-0.7l29.9-0.4l-1.1,1.1c-0.2-9.7-0.1-19.4-0.2-29.1l-0.1-29.1l0.1-29.1
	l0.1-14.5c0-4.8,0.1-9.7,0.1-14.5l1,1l-0.1,0c-0.5,0-1-0.4-1-1l0,0l-0.3-3.4l-0.6-3.4c-0.3-1.1-0.6-2.2-0.9-3.3
	c-0.4-1.1-0.8-2.2-1.2-3.2c-0.5-1-1-2.1-1.5-3.1c-0.6-1-1.2-2-1.8-3l-2.1-2.8l-2.4-2.6l-2.6-2.3c-0.9-0.7-1.8-1.4-2.8-2.1
	c-1-0.6-2-1.2-3-1.8c-1.1-0.5-2.1-1.1-3.2-1.5c-1.1-0.4-2.2-0.9-3.3-1.2c-1.1-0.3-2.3-0.6-3.4-0.9c-1.2-0.2-2.3-0.4-3.5-0.6
	l-3.5-0.3l3.6,0.1c1.2,0.1,2.4,0.3,3.5,0.4c1.2,0.2,2.3,0.5,3.5,0.8c1.1,0.3,2.3,0.7,3.4,1.1c1.1,0.4,2.2,1,3.3,1.4
	c1.1,0.5,2.1,1.2,3.1,1.7c1,0.7,2,1.4,3,2l2.8,2.3l2.5,2.6l2.3,2.8c0.7,1,1.3,2,2,3c0.6,1.1,1.2,2.1,1.7,3.2c0.5,1.1,1,2.2,1.4,3.4
	c0.4,1.2,0.7,2.3,1.1,3.5c0.2,1.2,0.5,2.4,0.7,3.6l0.4,3.6l-1-1l0.1,0c0.6,0,1,0.4,1,1l0,0l0,0c0.1,4.8,0.1,9.7,0.1,14.5l0.1,14.5
	l0.1,29.1l-0.1,29.1c-0.1,9.7,0,19.4-0.2,29.1l0,0c0,0.6-0.5,1-1.1,1l-29.9-0.4C224.6,553.8,214.7,553.6,204.7,553.3z"/>
<path class="st2" d="M400.5,437.1c0.9-19.8,17.1-35.6,37.2-35.6c20.6,0,37.2,16.7,37.2,37.2c0,12.1-5.8,22.8-14.7,29.6v85h-59.8
	L400.5,437.1L400.5,437.1z"/>
<path class="st5" d="M438,411.8c6.4,3.5,9.3,12.8,8.5,20.3c-1.1,11.1-8.2,18.7-19.5,19.7c-4.6,0.4-10.8,1.1-14.8-1.8
	c-5.5-4-5.1-13.2-3.2-19c2.9-8.7,10.5-17.3,19.4-19.9C432.2,409.9,435.4,410.4,438,411.8z"/>
<path class="st5" d="M411,483.9c0.1,0,0.2,0.1,0.3,0.1c4.4-0.2,8.8,0.2,13.2,0.7c7.8,0.9,12.2,3.8,13.3,12c1.6,12.6-0.5,15-1.1,27.6
	c-0.5,11-17.4,15.6-25.7,10.8l0.3-51.1"/>
<path class="st2" d="M408.5,544.1c10.3,2.8,30.7,5.3,34-9c2.4-10.4,1.2-20.6,1-31c-0.1-7,0.5-2.8,0.2-9.8c-0.2-4.5-0.3-10.6-3-14.5
	c-4.8-6.8-13.2-3.8-20.2-5.4c-3-0.7-12.6-7.1-7.1-10.5c3-1.9,6.8-2.2,10.2-2.6c7.1-0.6,14.6-0.7,20.7-4.9
	c7.2-4.9,10.5-13.2,10.7-21.8c0.4-12.3-5.3-26.5-15.8-33c19.8,0.8,35.7,17.1,35.7,37.2c0,12.1-5.8,22.8-14.7,29.6v85h-59.8v-14.5
	C402.3,541.2,404.9,543.1,408.5,544.1z"/>
<path class="st6" d="M460.2,553.3c-10,0.3-19.9,0.5-29.9,0.7l-29.9,0.4c-0.6,0-1.1-0.5-1.1-1l0,0c-0.2-9.7-0.1-19.4-0.2-29.1
	l-0.1-29.1l0.1-29.1l0.1-14.5c0-4.8,0.1-9.7,0.1-14.5l0,0c0-0.6,0.5-1,1-1l0.1,0l-1,1l0.4-3.6c0.2-1.2,0.5-2.4,0.7-3.6
	c0.3-1.2,0.7-2.3,1.1-3.5c0.4-1.1,0.9-2.2,1.4-3.4c0.5-1.1,1.1-2.1,1.7-3.2c0.6-1,1.3-2,2-3l2.3-2.8l2.5-2.6l2.8-2.3
	c1-0.7,2-1.4,3-2c1.1-0.6,2.1-1.2,3.1-1.7c1.1-0.5,2.2-1,3.3-1.4c1.1-0.4,2.3-0.8,3.4-1.1c1.2-0.3,2.3-0.6,3.5-0.8
	c1.2-0.1,2.4-0.3,3.5-0.4l3.6-0.1l-3.5,0.3c-1.2,0.2-2.3,0.4-3.5,0.6c-1.1,0.3-2.3,0.6-3.4,0.9c-1.1,0.4-2.2,0.8-3.3,1.2
	c-1.1,0.5-2.1,1-3.2,1.5c-1,0.6-2,1.2-3,1.8c-1,0.7-1.9,1.4-2.8,2.1l-2.6,2.3l-2.4,2.6l-2.1,2.8c-0.6,1-1.2,2-1.8,3
	c-0.5,1-1.1,2.1-1.5,3.1c-0.4,1.1-0.9,2.1-1.2,3.2c-0.3,1.1-0.6,2.2-0.9,3.3l-0.6,3.4l-0.3,3.4l0,0c0,0.5-0.5,1-1,1l-0.1,0l1-1
	c0.1,4.8,0.1,9.7,0.1,14.5l0.1,14.5l0.1,29.1l-0.1,29.1c-0.1,9.7,0,19.4-0.2,29.1l-1.1-1.1l29.9,0.4
	C440.3,552.9,450.2,553,460.2,553.3z"/>
<path class="st7" d="M455.6,595.2c0,6.5-56.1,11.8-125.3,11.8c-69.2,0-125.3-5.3-125.3-11.8c0-6.5,56.1-11.8,125.3-11.8
	C399.5,583.4,455.6,588.7,455.6,595.2z"/>
<path d="M146.9,304.1c-0.3,0-0.6-0.1-0.8-0.3c-0.2-0.2-0.4-0.5-0.4-0.9c0-0.3,0.1-0.6,0.4-0.8c0.5-0.5,1.2-0.5,1.7,0
	c0.2,0.2,0.3,0.5,0.3,0.9c0,0.3-0.1,0.6-0.3,0.8C147.5,304,147.2,304.1,146.9,304.1z"/>
<path d="M145.7,312.8c0-0.6,0.5-1.2,1.2-1.2l0,0c0.7,0,1.2,0.6,1.2,1.2l0,0c0,0.7-0.5,1.2-1.2,1.2l0,0
	C146.2,314,145.7,313.4,145.7,312.8z M145.7,310.3c0-0.7,0.5-1.2,1.2-1.2l0,0c0.7,0,1.2,0.5,1.2,1.2l0,0c0,0.7-0.5,1.2-1.2,1.2l0,0
	C146.2,311.5,145.7,311,145.7,310.3z M145.7,307.8c0-0.7,0.5-1.2,1.2-1.2l0,0c0.7,0,1.2,0.5,1.2,1.2l0,0c0,0.6-0.5,1.2-1.2,1.2l0,0
	C146.2,309,145.7,308.5,145.7,307.8z M145.7,305.3c0-0.6,0.5-1.2,1.2-1.2l0,0c0.7,0,1.2,0.6,1.2,1.2l0,0c0,0.7-0.5,1.2-1.2,1.2l0,0
	C146.2,306.5,145.7,306,145.7,305.3z"/>
<path d="M146.9,316.4c-0.3,0-0.6-0.1-0.8-0.4c-0.2-0.2-0.4-0.5-0.4-0.8c0-0.3,0.1-0.6,0.4-0.9c0.5-0.5,1.3-0.4,1.7,0
	c0.2,0.2,0.3,0.5,0.3,0.8c0,0.3-0.1,0.6-0.3,0.8C147.5,316.3,147.2,316.4,146.9,316.4z"/>
<rect x="123.8" y="298.1" class="st8" width="5.1" height="15.4"/>
<rect x="119.9" y="309.8" class="st9" width="12.9" height="278"/>
<rect x="119.9" y="309.8" class="st10" width="7.7" height="278"/>
<path class="st11" d="M153,586.5c0,2.8-1.4,5.1-3.2,5.1H103c-1.8,0-3.2-2.3-3.2-5.1l0,0c0-2.8,1.4-5.1,3.2-5.1h46.8
	C151.6,581.4,153,583.7,153,586.5L153,586.5z"/>
<path class="st10" d="M99.8,586.9c0.1,2.6,1.5,4.7,3.2,4.7h46.8c1.7,0,3.1-2.1,3.2-4.7H99.8z"/>
<path class="st12" d="M150.5,319.8c0,2-1.6,3.6-3.6,3.6s-3.6-1.6-3.6-3.6s1.6-3.6,3.6-3.6S150.5,317.8,150.5,319.8z"/>
<path class="st11" d="M157.5,595.3c0,2.8-1.7,5.1-3.8,5.1H99.1c-2.1,0-3.8-2.3-3.8-5.1l0,0c0-2.8,1.7-5.1,3.8-5.1h54.6
	C155.8,590.2,157.5,592.5,157.5,595.3L157.5,595.3z"/>
<path class="st10" d="M95.4,596c0.3,2.5,1.8,4.4,3.7,4.4h54.6c1.9,0,3.5-1.9,3.7-4.4H95.4z"/>
<polygon class="st13" points="117,230.4 80.7,302.9 172,302.9 135.8,230.4 "/>
<path class="st14" d="M134.3,233.4c0,0,2.3,13.6,10.1,30.1c11.1,23.6,23.4,36.6,23.4,36.6L134.3,233.4z"/>
<line class="st15" x1="123.6" y1="580.3" x2="123.6" y2="332.6"/>
<line class="st15" x1="123.6" y1="327.6" x2="123.6" y2="320.6"/>
<line class="st15" x1="129" y1="335.8" x2="129" y2="530.4"/>
<path class="st14" d="M148,321c0,0.7-0.5,1.2-1.2,1.2c-0.7,0-1.2-0.5-1.2-1.2c0-0.7,0.5-1.2,1.2-1.2C147.5,319.8,148,320.3,148,321z
	"/>
<line class="st15" x1="153" y1="593" x2="130.3" y2="593"/>
<line class="st15" x1="148.7" y1="584.3" x2="122.5" y2="584.3"/>
<rect x="346" y="125.8" class="st16" width="106.1" height="170.3"/>
<rect x="356.4" y="136.2" class="st17" width="85.2" height="149.4"/>
<polygon class="st18" points="379.4,128.4 444.5,132.5 449.1,263 449.1,128.4 "/>
<rect x="361.9" y="141.7" class="st19" width="74.3" height="138.5"/>
<line class="st15" x1="367.9" y1="280.1" x2="367.9" y2="141.7"/>
<line class="st15" x1="361.9" y1="273.4" x2="436.2" y2="273.4"/>
<polygon class="st20" points="418.2,293.4 353.2,289.3 348.5,158.7 348.5,293.4 "/>
<g>
	<rect x="204.1" y="157.8" class="st16" width="106.1" height="106.1"/>
	<rect x="214.6" y="168.3" class="st17" width="85.3" height="85.3"/>
	<polygon class="st18" points="237.6,160.4 302.6,164.6 307.3,230.9 307.3,160.4 	"/>
	<rect x="220" y="173.8" class="st13" width="74.3" height="74.3"/>
	<line class="st15" x1="226" y1="248.1" x2="226" y2="173.8"/>
	<line class="st15" x1="220" y1="241.3" x2="294.4" y2="241.3"/>
	<polygon class="st20" points="276.4,261.3 211.3,257.2 206.6,190.8 206.6,261.3 	"/>
</g>
</svg>
